<mxfile host="app.diagrams.net" modified="2021-10-09T02:51:42.603Z" agent="5.0 (Windows NT 10.0; Win64; x64) AppleWebKit/537.36 (KHTML, like Gecko) Chrome/94.0.4606.71 Safari/537.36" etag="jp0bMyxa_HUGZgU7mpNO" version="15.3.8" type="github">
  <diagram id="B-32rawTYkPc-AqyvY-U" name="Page-1">
    <mxGraphModel dx="868" dy="450" grid="1" gridSize="10" guides="1" tooltips="1" connect="1" arrows="1" fold="1" page="1" pageScale="1" pageWidth="827" pageHeight="1169" math="0" shadow="0">
      <root>
        <mxCell id="0" />
        <mxCell id="1" parent="0" />
        <mxCell id="63Z_f9gizhp_pSHiyOVv-22" value="" style="endArrow=none;html=1;curved=1;fillColor=#0050ef;strokeColor=#001DBC;shadow=0;sketch=1;" parent="1" edge="1">
          <mxGeometry width="50" height="50" relative="1" as="geometry">
            <mxPoint x="360" y="400" as="sourcePoint" />
            <mxPoint x="360" y="80" as="targetPoint" />
          </mxGeometry>
        </mxCell>
        <mxCell id="63Z_f9gizhp_pSHiyOVv-23" value="" style="endArrow=none;html=1;curved=1;fillColor=#0050ef;strokeColor=#001DBC;shadow=0;sketch=1;" parent="1" edge="1">
          <mxGeometry width="50" height="50" relative="1" as="geometry">
            <mxPoint x="160" y="80" as="sourcePoint" />
            <mxPoint x="360" y="80" as="targetPoint" />
          </mxGeometry>
        </mxCell>
        <mxCell id="63Z_f9gizhp_pSHiyOVv-26" value="" style="endArrow=none;html=1;curved=1;fillColor=#0050ef;strokeColor=#001DBC;shadow=0;sketch=1;" parent="1" edge="1">
          <mxGeometry width="50" height="50" relative="1" as="geometry">
            <mxPoint x="110" y="340" as="sourcePoint" />
            <mxPoint x="110" y="130" as="targetPoint" />
          </mxGeometry>
        </mxCell>
        <mxCell id="63Z_f9gizhp_pSHiyOVv-25" value="" style="endArrow=none;html=1;edgeStyle=orthogonalEdgeStyle;curved=1;fillColor=#0050ef;strokeColor=#001DBC;shadow=0;sketch=1;" parent="1" edge="1">
          <mxGeometry width="50" height="50" relative="1" as="geometry">
            <mxPoint x="110" y="130" as="sourcePoint" />
            <mxPoint x="160" y="80" as="targetPoint" />
            <Array as="points">
              <mxPoint x="110" y="80" />
            </Array>
          </mxGeometry>
        </mxCell>
        <mxCell id="63Z_f9gizhp_pSHiyOVv-27" value="" style="endArrow=none;html=1;curved=1;fillColor=#0050ef;strokeColor=#001DBC;shadow=0;sketch=1;" parent="1" edge="1">
          <mxGeometry width="50" height="50" relative="1" as="geometry">
            <mxPoint x="160" y="400" as="sourcePoint" />
            <mxPoint x="360" y="400" as="targetPoint" />
          </mxGeometry>
        </mxCell>
        <mxCell id="63Z_f9gizhp_pSHiyOVv-28" value="" style="endArrow=none;html=1;edgeStyle=orthogonalEdgeStyle;curved=1;fillColor=#0050ef;strokeColor=#001DBC;shadow=0;sketch=1;" parent="1" edge="1">
          <mxGeometry width="50" height="50" relative="1" as="geometry">
            <mxPoint x="110" y="340" as="sourcePoint" />
            <mxPoint x="170" y="400" as="targetPoint" />
            <Array as="points">
              <mxPoint x="110" y="400" />
            </Array>
          </mxGeometry>
        </mxCell>
        <mxCell id="63Z_f9gizhp_pSHiyOVv-29" value="" style="whiteSpace=wrap;html=1;rounded=1;fillColor=#B8B8B8;strokeColor=#666666;fontColor=#333333;" parent="1" vertex="1">
          <mxGeometry x="140" y="110" width="190" height="160" as="geometry" />
        </mxCell>
        <mxCell id="63Z_f9gizhp_pSHiyOVv-44" value="" style="ellipse;whiteSpace=wrap;html=1;aspect=fixed;rounded=1;fillColor=#B8B8B8;strokeColor=#666666;fontColor=#333333;" parent="1" vertex="1">
          <mxGeometry x="260" y="290" width="50" height="50" as="geometry" />
        </mxCell>
        <mxCell id="63Z_f9gizhp_pSHiyOVv-46" value="" style="endArrow=none;html=1;curved=1;fillColor=#0050ef;strokeColor=#001DBC;shadow=0;sketch=1;" parent="1" edge="1">
          <mxGeometry width="50" height="50" relative="1" as="geometry">
            <mxPoint x="360" y="120" as="sourcePoint" />
            <mxPoint x="600" y="120" as="targetPoint" />
          </mxGeometry>
        </mxCell>
        <mxCell id="63Z_f9gizhp_pSHiyOVv-49" value="" style="endArrow=none;html=1;edgeStyle=orthogonalEdgeStyle;curved=1;fillColor=#0050ef;strokeColor=#001DBC;shadow=0;sketch=1;" parent="1" edge="1">
          <mxGeometry width="50" height="50" relative="1" as="geometry">
            <mxPoint x="600" y="120" as="sourcePoint" />
            <mxPoint x="660" y="170" as="targetPoint" />
            <Array as="points">
              <mxPoint x="660" y="120" />
            </Array>
          </mxGeometry>
        </mxCell>
        <mxCell id="63Z_f9gizhp_pSHiyOVv-50" value="" style="endArrow=none;html=1;curved=1;fillColor=#0050ef;strokeColor=#001DBC;shadow=0;sketch=1;" parent="1" edge="1">
          <mxGeometry width="50" height="50" relative="1" as="geometry">
            <mxPoint x="660" y="360" as="sourcePoint" />
            <mxPoint x="660" y="170" as="targetPoint" />
          </mxGeometry>
        </mxCell>
        <mxCell id="63Z_f9gizhp_pSHiyOVv-51" value="" style="endArrow=none;html=1;curved=1;fillColor=#0050ef;strokeColor=#001DBC;shadow=0;sketch=1;" parent="1" edge="1">
          <mxGeometry width="50" height="50" relative="1" as="geometry">
            <mxPoint x="364" y="400" as="sourcePoint" />
            <mxPoint x="610" y="400" as="targetPoint" />
          </mxGeometry>
        </mxCell>
        <mxCell id="63Z_f9gizhp_pSHiyOVv-52" value="" style="endArrow=none;html=1;edgeStyle=orthogonalEdgeStyle;curved=1;fillColor=#0050ef;strokeColor=#001DBC;shadow=0;sketch=1;" parent="1" edge="1">
          <mxGeometry width="50" height="50" relative="1" as="geometry">
            <mxPoint x="610" y="400" as="sourcePoint" />
            <mxPoint x="660" y="350" as="targetPoint" />
          </mxGeometry>
        </mxCell>
        <mxCell id="63Z_f9gizhp_pSHiyOVv-53" value="" style="whiteSpace=wrap;html=1;rounded=1;fillColor=#B8B8B8;strokeColor=#666666;fontColor=#333333;" parent="1" vertex="1">
          <mxGeometry x="400" y="150" width="220" height="130" as="geometry" />
        </mxCell>
        <mxCell id="63Z_f9gizhp_pSHiyOVv-54" value="" style="whiteSpace=wrap;html=1;aspect=fixed;rounded=1;fillColor=#B8B8B8;strokeColor=#666666;fontColor=#333333;" parent="1" vertex="1">
          <mxGeometry x="510" y="300" width="30" height="30" as="geometry" />
        </mxCell>
        <mxCell id="63Z_f9gizhp_pSHiyOVv-56" value="" style="whiteSpace=wrap;html=1;aspect=fixed;rounded=1;fillColor=#B8B8B8;strokeColor=#666666;fontColor=#333333;" parent="1" vertex="1">
          <mxGeometry x="550" y="300" width="30" height="30" as="geometry" />
        </mxCell>
        <mxCell id="63Z_f9gizhp_pSHiyOVv-57" value="" style="whiteSpace=wrap;html=1;aspect=fixed;rounded=1;fillColor=#B8B8B8;strokeColor=#666666;fontColor=#333333;" parent="1" vertex="1">
          <mxGeometry x="430" y="300" width="30" height="30" as="geometry" />
        </mxCell>
        <mxCell id="63Z_f9gizhp_pSHiyOVv-58" value="" style="whiteSpace=wrap;html=1;aspect=fixed;rounded=1;fillColor=#B8B8B8;strokeColor=#666666;fontColor=#333333;" parent="1" vertex="1">
          <mxGeometry x="470" y="300" width="30" height="30" as="geometry" />
        </mxCell>
        <mxCell id="63Z_f9gizhp_pSHiyOVv-59" value="" style="whiteSpace=wrap;html=1;aspect=fixed;rounded=1;fillColor=#B8B8B8;strokeColor=#666666;fontColor=#333333;" parent="1" vertex="1">
          <mxGeometry x="550" y="340" width="30" height="30" as="geometry" />
        </mxCell>
        <mxCell id="63Z_f9gizhp_pSHiyOVv-61" value="" style="whiteSpace=wrap;html=1;aspect=fixed;rounded=1;fillColor=#B8B8B8;strokeColor=#666666;fontColor=#333333;" parent="1" vertex="1">
          <mxGeometry x="470" y="340" width="30" height="30" as="geometry" />
        </mxCell>
        <mxCell id="63Z_f9gizhp_pSHiyOVv-63" value="" style="whiteSpace=wrap;html=1;aspect=fixed;rounded=1;fillColor=#B8B8B8;strokeColor=#666666;fontColor=#333333;" parent="1" vertex="1">
          <mxGeometry x="510" y="340" width="30" height="30" as="geometry" />
        </mxCell>
        <mxCell id="63Z_f9gizhp_pSHiyOVv-65" value="" style="whiteSpace=wrap;html=1;aspect=fixed;rounded=1;fillColor=#B8B8B8;strokeColor=#666666;fontColor=#333333;" parent="1" vertex="1">
          <mxGeometry x="430" y="340" width="30" height="30" as="geometry" />
        </mxCell>
        <mxCell id="63Z_f9gizhp_pSHiyOVv-67" value="" style="outlineConnect=0;fillColor=#B8B8B8;strokeColor=#666666;dashed=0;verticalLabelPosition=bottom;verticalAlign=top;align=center;html=1;fontSize=12;fontStyle=0;aspect=fixed;pointerEvents=1;shape=mxgraph.aws4.container_registry_image;rounded=1;fontColor=#333333;" parent="1" vertex="1">
          <mxGeometry x="180" y="135" width="110" height="110" as="geometry" />
        </mxCell>
        <mxCell id="63Z_f9gizhp_pSHiyOVv-70" value="&lt;font style=&quot;font-size: 15px ; line-height: 140%&quot; color=&quot;#3029ff&quot;&gt;nombre:pirueta&lt;br&gt;tipo: aereo&lt;br&gt;poder:tornados&lt;br&gt;peso: 3kg&lt;br&gt;altura:80cm&lt;/font&gt;" style="text;html=1;strokeColor=#666666;fillColor=#B8B8B8;align=center;verticalAlign=middle;whiteSpace=wrap;rounded=1;fontColor=#333333;" parent="1" vertex="1">
          <mxGeometry x="432.5" y="160" width="155" height="110" as="geometry" />
        </mxCell>
        <mxCell id="vyJ8C7liv6m-M0lr4ZKk-1" value="" style="shape=image;imageAspect=0;aspect=fixed;verticalLabelPosition=bottom;verticalAlign=top;shadow=0;dashed=1;dashPattern=1 2;labelBackgroundColor=#FFFFFF;strokeColor=#666666;fillColor=#B8B8B8;image=data:image/jpeg,/9j/4AAQSkZJRgABAQEAYABgAAD/2wBDAAMCAgMCAgMDAwMEAwMEBQgFBQQEBQoHBwYIDAoMDAsKCwsNDhIQDQ4RDgsLEBYQERMUFRUVDA8XGBYUGBIUFRT/2wBDAQMEBAUEBQkFBQkUDQsNFBQUFBQUFBQUFBQUFBQUFBQUFBQUFBQUFBQUFBQUFBQUFBQUFBQUFBQUFBQUFBQUFBT/wAARCAIlAiUDASIAAhEBAxEB/8QAHwAAAQUBAQEBAQEAAAAAAAAAAAECAwQFBgcICQoL/8QAtRAAAgEDAwIEAwUFBAQAAAF9AQIDAAQRBRIhMUEGE1FhByJxFDKBkaEII0KxwRVS0fAkM2JyggkKFhcYGRolJicoKSo0NTY3ODk6Q0RFRkdISUpTVFVWV1hZWmNkZWZnaGlqc3R1dnd4eXqDhIWGh4iJipKTlJWWl5iZmqKjpKWmp6ipqrKztLW2t7i5usLDxMXGx8jJytLT1NXW19jZ2uHi4+Tl5ufo6erx8vP09fb3+Pn6/8QAHwEAAwEBAQEBAQEBAQAAAAAAAAECAwQFBgcICQoL/8QAtREAAgECBAQDBAcFBAQAAQJ3AAECAxEEBSExBhJBUQdhcRMiMoEIFEKRobHBCSMzUvAVYnLRChYkNOEl8RcYGRomJygpKjU2Nzg5OkNERUZHSElKU1RVVldYWVpjZGVmZ2hpanN0dXZ3eHl6goOEhYaHiImKkpOUlZaXmJmaoqOkpaanqKmqsrO0tba3uLm6wsPExcbHyMnK0tPU1dbX2Nna4uPk5ebn6Onq8vP09fb3+Pn6/9oADAMBAAIRAxEAPwD6QooooICiiigAooooAKKKKACiiigAooooAKKKKACiiigAooooAKKKKACiiigAooooAKKKKACiiigAooooAKKKKACiiigAooooAKKKKACiiigAooooAKKKKACiiigAooooAKKKKACiiigAooooAKKKKACiiigAooooAKKKKACiiigAooooAKKKKACiiigAopdpo20AJRS7aXbQA2inbaMCgBtFOpaAGUc0+igBu00bTTqKAG7aNtOooAbtpdtLRQAm2jaKWigBNoowKWigBKKWigAooooAKKKKACiiigAooooAKKKKACiiigAooooAKKKKACimySLFGzuwRFGWZjgAepNec3vxWn8R+KE8J/D/AEqTxb4hf/WPCcWloM43SydB34HJxVxjKbtFBdI7vVtYs9DsZLu9nWCGMZJY8n2A7mvMfDHxm1rUPiQnh3XvB+peGrO/iaXS59QiaN7hVxlirAYBzkV9L/B/9mpfDt1F4i8bah/wk3ijPmIrL/olkeuIY+mR/eOTXnX7e2jw6Td/Djxp9qltH0zV1tZCp+Ro5cgg/jiuinCDbg9XYzk3a5ZopscgkjV1OVYZBp1choFFFFACUUtFACUYFLRQAm0UbRS0UAJto20tFADdtG2nUUAN20bTTqKAG4NJT6KAGUU+igBlFOo2igBtFO20baAG0Uu2jaaAEopdpooAdRRRQAUUUUAFFFFABRRRQAUUUUAFFFFABRRRQAUUUUAFFFFABRRRQAUUUUAFFFFABRRRQAUUUUAFFFFABRRRQAUUUUAFFFNZ1jUsxCqOST0FADq4v4jfFrw/8MtPafVbtfPx8lrGcyP+HYe9eVfGP9qKLRbybw54PjfUdac+QLiOPzAHPG2NR99q6v8AZ3/YW1bx3qsXjb4xNNIkhEsOgySZeU9Q1ww/h/6Zr+J7V6FPDKMfa13ZdurMZVNeWGrMD4b+D/iV+2VfvK7S+D/hsJCsl1HlZbpQfuxn+L0LdAe9fenwp+D3hX4NeHItG8MaXHZW6j95N1lnbuzt3NdJpOmWeh6fBY2FtHZ2kCCOKKFAqooHAAHQCre8+9YVazn7sFyx/rcuMLay1ZZ34r5e/wCCjCKf2cri6cHy7HU7W6cgZIVWOa+md9eC/t02S6j+yv48jK7pBaI6exWVD/LNLDW9tH1HV1g2ee+FdRi1bw1pd5A26Ka2jZT/AMBFatcZ8Gm3fC3w0f8ApzSuzrGStJoa2CiiipGFFFFABRRRQAUUUUAFFFFABRRRQAUUUUAFFFFABRRRQAUUUUAFFFFABRRRQAUUUUAFFFFABRRRQAUUUUAFFFFABRRRQAUUUUAFFFFABRRRQAUUUUAFFFFABRRRQAUUUUAFFFFABRRRQAUUUUAFFFFABRWb4i1pPDmh3upywTXMVrE0rxwAF2AGTjJA/WvJvEH7WHg3TdAjvbCSbUL2aPdHZiMqytjo5PArWnSnVdoK5MpKOrZ6p4m8WaT4P02S/wBXvorK2QE7pGAzxnA9a+e31z4kftY6q+ifD3S7jSfC8cu2bWLjMcbqD1Ld/wDdFQ/s6/DHWP2wviBqHiDxreTnwrpE6/6HFkRSynkRKewC43Hqc+9fpP4f0LTfC+kW+maTaQ6fYwKFighQKi49gK7pRjgpWfvT7dF/mZa1dtEeL/s7/sb+EPgZGmozIviDxW6gy6teJkoe4iB+6P1NfQHmHnr7VX8z3o31w1Ks6suabubxioqyRZ3mjearb6N9ZFlnea8t/agsV1P4A+OIH5H9mSkD3xxXpO+uQ+MFmNU+Ffiy2PR9MuCfwQt/StaTtUi/Mifws+Rf2YdQfUvgf4YlklMrrb7CzdeCRXqdeN/slH/iyekr1CSyqP8AvqvZKqv/ABZerJh8KCiiisCgooooAKKKKACiiigAooooAKKKKACiiigAooooAKKKKACiiigAooooAKKKKACiiigAooooAKKKKACiiigAooooAKKKKACiiigAooooAKKKKACiiigAooooAKKKKACiiigAooooAKKKKACiiigApGYKpJIAHJJ6CoL6+t9NtZLm6mSCCNSzyOcAAV8j/HL9qF/EUN3oPhZpLexLGOXUOjSr32eg/WurD4apiZ8kEZ1KkaavI7f4ufGdvGusD4aeB0/tHWtUkWye6DFYk3cMAw9up7Zr5L8UaDqngvXNS0bWrSWx1XT3KT28nXjoQe4PqK+uf+CcPwzg1jxJrXje9h8z7ATaWbNyFc/eb64Jrq/+Ck3wjt7rwpYfECxt1jvbGVba+ZBgyQseC3rj1r38PVp4SssPT1vu/M4ZwlWjzs9u/Yj8GQeC/wBnPwyEh8q61FHv7r1Z3c4P4KFFe8+ZXAfBJYYfhL4TWB1eIabDtdTwRtByK7bzK+crS56kpX6no01aCRZ8yjzKreZR5lYmhZ8yjzKreZR5lAFnzfesHx9m48D6/CP+WlhcR/8AfUZFaNxdx2sLySyLFGo3MzkAADv7Vka5qVvqXg/VLi1lW4t2tJtsiHKthD0rSn8aJlsz4U/Yv1Ke4+Gt/YzNuFjqE0ScdF3Hj9K+ga+ZP2L9chaHxbo4VhNHfNcZPQqXYV9N1vio8teSMKL5qaYUUUVyGwUUUUAFFFFABRRRQAUUUUAFFFFABRRRQAUUUUAFFFFABRRRQAUUUUAFFFFABRRRQAUUUUAFFFFABRRRQAUUUUAFFFFABRRRQAUUUUAFFFFABRRRQAUUUUAFFFFABRRRQAUUVheJPHWgeD7d59Y1a1sEVSx86UA4HtT3A3aK8stfjRf+Mpmg8A+DdY8WEOF+2LCYLQZ7mV8LXT2Pwh+MnjOVH1HXdH8FWe/JgslN3chfQnhP1Naezl10FfsdTLMkEbSSusca8lnIAH1NeT/EP9pzwT4BjeM6nDqd+MgW1rIDyCAct0716sP2Q9E1aN/+Em8U+ItfeQYdftIt4H9tiDj866jwr+y78KvBbLNpfgrS45lOTNNGZWY9yd2c1pCNJO83cT5uiPzZ8f8Axq8YfGaaSG3tNQk0wMTHY6XaTSIR6MVB3GuWt/hn43vk3weCfEEi9c/YGXr7HFfstp+iabpK4sdPtbIelvCqD9BV7cK9WnmapJKnBJI45YRzlecrs+V/+CfPgHxj4C8B+IU8U6RLo1reXyz2Nvc4Eu0qd5YAnAzjFe8fGvwXF8RvhT4n8OyjIvrGWNSRuIfblSPxArsdwHekZlZWBHBGDXlzrSnVVRq1zujBRjyo8B/YT8aTeKf2eNGtL5mGq6HLLo92rnOJImx+W0j8q+ht1fKX7NuPAn7RHxd8F8R21xPFrECDhQJAQwH1PJr6m8xamuvfb7hD4SfdRuqDzKPMrnLJ/MrC8aeOdG+H/h681vXr6Ow0+1Xe0jnk+iqO5PTHXkVPrWuWugaXc393IUggQs2Bk+wHua8X0D4e6p8ZvFVt4w8eW7WuhWMm7RfDcn3R6XE47sew7VpGK3ZMr9BvhjT/ABP+0NqkPiDxNBceHfh/E+7TvDjEpPqPdZbsjkL3EfT+9XuN9ZRLok9pGixQmFowijAC7SOlTrthUIoCqOAB2qtqkh/s272nDGF8f98mm5XehLilFn5vfsbrs8beNEzkrJKp/CcivrKvmf8AZE8OyWviD4gaozAxNqclug75Dkn9a+mK6MY+as36fkZ0laCQUUUlcRqLRVW41SztYXlmu4Io0+8zyAAfrTdJ1ix120+1adeQ31tuK+bbuHXI6jIp2e4FyiiikAUUUUAFFFFABRRRQAUUUUAFFFFABRRRQAUUUUAFFFFABRRRQAUUUUAFFFFABRRRQAUUUUAFFFFABRRRQAUUUUAFFFFABRRRQAUUUUAFFFFABRRXOeM/H2keBbOObUZz50zbILWEF5pn7Kijkmmk3ogOjrzjxx8dvDvg+8XTLYzeINek4i0rSUM8zH0IXOK0NH+F/wASPjRL5uqTSeBPCMoyLeMZ1C4QjnP/ADzH617j8M/gf4O+Eth9n8O6NDbSNzLeSjzJ5T6vIeSa2UYR+N69havY+fND+Hvxp+LkSSahJa/DHRZMnYuLjUHTPH+ymR35x6V6j4K/ZJ+H/he9j1PUNOk8Va4uS2pa65uXJPoh+RfwWvbfLOOlL5Z7cUnUa92CsPl7la3to7OFIoYkijRdqqgAAHoMVLuOMdqk8s+lGw+lZalke4+lG49cVJsPpRsPpSAj3H0o3H0qTYfSjYfSgCPcfSjcak2H0o8s+lAHyl4wk/4Q/wDbz8G3ATZD4m0K4tB6NLEd5P8A3zX1TuO2vl/9qSxk0/49fA7Wo+Jhq8lku3+68fzfyr6jEbKvrXTW+GLM4dSPcfSuf8fePtE+GvhbUPEHiC9jsdNs4y7yP1J7KB3YnoB1qTx7460X4b+GLvXtevI7GwtkLFnIBJ7ADuT6V87fD/wfrf7UvjCz8e+NrSSx8Dae/m6B4dlz/pDA/LcTL39QDU06enNIqUnsj1n4K+MvEvxR8Lza94p8OwaFYXc5m0m0lJM7W38DyqfuuRzj37dK9MX5RhRgYxUkcIiUBFVQBj5elUda1zTfDdjJe6re2+n2kYLPNcSBFA9cms2uZ+6rhoviLW40kmHjZW+6ww2emK8B1L9snwzqusNovgDSdS+Imr5wV0eI/Z17ZMx+UAfWuY+J3gn9on4heEtXuj4m0XwXZm3dxotjGXnKAElWnHcjrjit6dGXOk3YmUrLQxfgTb2+jfDnUNavPs2k2Vxq147XV5KkCPiUjducgHp19q3IfixoeoSRrpEOq+IFYkGTS9NmkjGDg4kKhG/BjXgX7KfwTg1qzTxV4rEuqW9tI6abpd1KZLeNwx3SFTwecke5zX12mrXcNuLeKZobccCGLCoPoBRXjCNRpO5EHJx1NoafY3Xg9rzT4Uj1WSPMUWruYtjf7aqc49h+deC6z8Edf8YXck3iT4pa2kO4lLHwzbpp0Sg/w7yXdh7k16szM5yxLH1JpKwjNxd0aPU8j0v9kz4VabIs1x4euNeuhybjWtQmnYn1wGC/mK9N0PQNL8MaXFp2j6bZ6VYxElYLOBYlyepO0DJ9zV+iiU5T3YWsFFFFQAUUUUAFFFFABRRRQAUUUUAFFFFABRRRQAUUUUAFFFFABRRRQAUUUUAFFFFABRRRQAUUUUAFFFFABRRXi3xd/aWsfhfrE2jpo91f6kkayDcfLiIP+0evStadOdaXJBXYpSUVdntNFfKFr+2drN5G0kPg95ol+88KSyBfqVBFP/4bK1vt4OmP0gn/APia6ngcQt4/ijP2sGrpn1ZRXyp/w2Rrv/QmTf8Afif/AOJqvf8A7YniWW0kW08IyRXGPlZ7acqPr8tJYKu+n4oHWgup9Z0V81eF/jJ4q8U6PBd3HjHw74cuZCd9nf6Vdb4wPU7cGvVNF+Evxf8AiN4fgv8ASfiT4bhsbj5ory00yUlgOowxFZSoOLtKS+8pTTV0eg0m4eorA0H9k3x28itr3xd1Jm7pptpGin/voGuu0n9j3wha3RutV1DXdevyctJeajIFb/gCkL+lZuCj9opO/Q8o+N3xdt/hX4Y+1QSW1xq8rhbeylbl/UkDkD3q18GfjBpXxi0gPp52avCuLrT+rxkdSPVfemftPfsR+H9W8Gah4g8H/arDxFp8DSpE9w8sM6LyUKsTg47ivU/2N/COiaB8A/C9xpljDb3V5AZr2TYPNaYsQ28+vGPwFdUoUPqymn71zO8/aW6FObw9r+okWul2YS6k48+7BWKL/aPc/QfpXV/Dz4FaR4MuF1fUGbxB4mYZk1W9UFoyTkrEvSNfYc+pNeo+WASccnrS+X7Vxc1lobWIdntRtqbZRsqSiLb7UbfapdlGygCLb7UbfapdlGygCLb7UbfapdlGygCLb7UbfapdlGygCLb7UhX8Km2UbPagDxX9oLwq+ta58NL2GAzSWPiFGYgZ2IYpMn8wK9iVMKMjtU0luk23eivtORuGcH1FP29sVcpcyS7CSscP8RfhL4Z+K1rp1t4l0/8AtC3sLgXUMfmELvH94AgMOR1rq7e1h0+0jhgjSCCJdqouFCgdsfSrmyquqaTb6zYT2V3H5ttOuyWMnh17g+oNLmfwt6DPCPHHx+17xDqc/hz4ReHT4s1RSYptbmby9Ks2zggy/wDLRl7qma5PSP2Mb74hapHrnxo8Y3vjW63+YNGtHa20uL22DlsepxX1FpOi2Wh2MVlp9pFZ2sShUihUKFAGAOKtbOc459a1VXkXLFEcrZz/AIT8D6D4G0mLTdA0i10iyjACw2sSoPxx1/GqfxQvjpPw38U3iL80Ol3Lj8Im5rrdtcD8e7g2vwd8Xf8ATXTZoAcdC67f61EW5STl3HJe6eD/AAZhih+GHh7ykVFe2WQhRjJJJJrtK5/4f6O2geCdE092Dtb2saFh34roKmW7EFFFFSAUUUUAFFFFABRRRQAUUUUAFFFFABRRRQAUUUUAFFFFABRRRQAUUUUAFFFFABRRRQAUUUUAFFFFABRRRQAUUUUAFeV/Hr4Jw/Fzw+ptZUs9eswWtLhx8rcfcfvg/oa9Uoq4TlTkpRdmJpSVmdd+y38N2+GnwV0DRr23tYtREJa7aAgrI5PJzjmvVl0+FOBDGv8AwAV4pofxGn8E3kU14zTaEQFuFHLWxHSVfb1H417lp91b6lZw3dpMlxazIskcsZ3KynoR7Vcqk5tzCMYxVkiH7HF/zzX8hS/ZI+P3a/kKubaNtZ8zfUuyKTWUTcGNSPTaKfHCsa7VUKPQcVa20baV2Mr7OMdqPL4xVjbRtovbUDP1Cy+3WNzbkZEsTRnPuCK+aP2F/ETT+GfGnhmR8PoGv3NusTMSyoWJB+h5xX1MY9wI5r5J+GOhzfBv9tjxtojjytE8dWK6rYAD5TcRHEiD8CzfjXTRt7OUX6mclqmfV+2jZU4jG3I5pdtcpoV9lGyrG2jbQBX2UbKsbaNtAFfZRsqxto20AV9lGyrG2jbQBX2UbKsbaNtAFfZRsqxto20AV/Lo2VY20baAK+yjZVjbRtoAr+XRsqxto20AV/LrM8SeHrLxNod5pmoRedZ3CbZEzjODmtvbVXVLpNP026upFkaOGNnZY13MQAScCnr0A+eZLdLORoIxiOIlFHsOBTaGvIdQZrq3kEsExLo47gmikQFFFFABRRRQAUUUUAFFFFABRRRQAUUUUAFFFFABRRRQAUUUUAFFFFABRRRQAUUUUAFFFFABRRRQAUUUUAFFFFABRRRQAUUUUANZVkUqyhlYYKsMgiue8J/FK5/Z58RQWWqLNcfDnUpdq3P3jpM5PAPpExP0Bro6r6hp9tq1jPZ3kEdzazoUkhkXKsp6giqjLlGfTtjdW+p2kN1bTJPbzKHjkjO4Op5yMVN5dfJ/wo8U6n8A9QXSbqebVvh5M37l5CXn0gk/dPdov1FfWNjdQalaRXVrKlxbTIJI5YiGVlPIII4IIpyj1iO4nl0eXVkx/jSbKz3GV/Lo8urG2jbTAr+X+Pt2rmfFHw50rxZrGiardoyalo85ntLqPh0yCrLn0IJBFddto201o7oCv5Y9KPLqxto20gK/l0eXVjbRtoAr+XR5dWNtG2gCv5dHl1Y20baAK/l0eXVjbRtoAr+XR5dWNtG2gCv5dHl1Y20baAK/l0eXVjbRtoAr+XR5dWNtG2gCv5dHl1Y20baAK/l0yW3WZGRhlWUg59O9W9tKF9qL22A+DPDviKfwX8bPF3w01NyY4Zjf6SzHjyX5aMHvg816fXlf7e+it4A+M3w9+IkCYjdmtbh8YXK/Njj1Td+Vem2N5FqFnBcwuJIZkDow6EEZBrrr01FRnHaSMYybbTJ6KKK5CwooooAKKKKACiiigAooooAKKKKACiiigAooooAKKKKACiiigAooooAKKKKACiiigAooooAKKKKACiiigAooooAKKKKACiiigBGUMpDAMp4IIyDXG3XjXxr8Abk614Stm8R+Ey+/UPDLnLQ5PMlsf4e5K9K7Okq4S5XcTVz1v4LftEeDfjjppk0LUBFqcPFzpF2Ql1bnuGTuPccV6hs79a/PL4j/AABfVdej8V+CdRk8M+L4Pnimt38tJX7ZI6Z6eh7ivbP2a/2qtX1rXY/h38VtLl8NeOoUxBcTxmOHUQP4kP3S30ODXVKjCcfaUn6rsKMmtJH1FsH6UeXXlHxg/ag8B/ByRLTU7+TVNdl/1OiaTEbi7lbsNi9PxxXkX/C/v2hfiJtk8D/B2HQtOY4S98U3YQkdiYRhl/Wso0JyjzPRFc8eh9abBRsHWvmjTbH9rS5YS3V98NbVW/5ZpBdyY/8AHgK7rwlD8drW5UeIn8FahAT832AXMBx/wLfSlScftIOY9d8ujYKlt45DChlVUlx8yq2Rn2qTy6wLK2wUbBVny6PLoArbBRsFWfLo8ugCtsFGwVZ8ujy6AK2wUbBVny6PLoArbBRsFWfLo8ugCtsFGyrPl0eXR5jK2yjZVgqKT5c4ByaXyEQbBRsFT4Gcd6d5dMCtsFGwVZ8ujy6AK2wUeXVny6PLoA+YP+Cgngc+LP2edTvIojLd6HPFqUfsqMBJ/wCOFq8r+BOvf8JF8LdCuTIsjxw+QxX1Q7f6V9mfEzwzF4t+H+v6PPH5sd5ZyxGMD72VIxXwR+yhbz6f8OrvTrkbZrHUZ7dl9CrEV36SwlnupfmYWtUPaqKKp6lrWmaHbtcapqVnpdsvJmvJljX8Mnk+w5rhSb0RoXKK5DUPH01xatN4Y0O98SpuCpcLi1t3BAIYNLtYrgjkIQa2vDNn4gGmSXniK80lbiVx5Wn6aJXaFcHO+RwAx6dBVcrW4XNWhlKwtKQREoJZ8cADrzWz4a8Nvr3+kSFodPU/NLjBkx2T1+vSu/itoILf7NHBGtrt2G3x8jKeuR3z3z1riq4iFJ2e41eTsjyG1vIL6BZreVJ4W+68ZyD+NTV53qGiv8C/io+k7zH4I8SOZ9MLtlLO5P34AewPJAr0SuxrRSWzJTuFFFFSMKKKKACiiigAooooAKKKKACiiigAooooAKKKKACiiigAooooAKKKKACiiigAooooAKKKKACiiigAoormPiN40u/As+n6NpGntrHjjVAH03SY8Haveab+4g4PPWqjFydkB302s+FvhnZQ63421FbNHI+yaeo33Fy3YLGOTXlvxy0jxJ+0xJpsl75Hg3w5ZyebZ2oiD6hJ6NITxH/u1Y8K/DGTSdXk8SeL9R/4Srx1ccy38p3Q2QP/ACyt16KB03D0rs63VT2Er03r3JtzLU+fdD+DPjX4I61/wlXgTWodb1KEDzbLVIFP2lM5Kk+vpjmvqr4P/tqeEvG80Wi+KoZvA3isAJJY6p8sTt0/dy9Dn0NcvWVr3hXR/FFu0GrabbX8RGMTRhj+B6iqniHV/iq77iUFH4T7IguIbqNJIXWWNhlXQ5BHsRUq4bpX53eL7Xxr8FdJk8RfDjxZeWFraENc6FfObm1ePP8AAGOVxnoCK+n/ANkv9og/tCeC7i6v7NNP1/TZvs97BESUY4BEif7J9+lQ6D9n7WL0L51zcttT3Tb7UbfapNtG2ucsj2+1G32qTbRtoAj2+1G32qTbRtoAj2+1G32qTbRtoAj2+1G32qTbRtoAj2+1G32qTbRtoAj2+1IV+WpSKay1L8gufHv7bn7Ul78NoovB3hO7Nt4ivI99zeKfmtYj02/7R/Svh/wj8bviF4H8QLrWmeL9Ve8L75Y7y6eaGf1Dox6Va+PPiK48XfG7xpqN02+QajJbr/uxnaAPyNcPsB7V9vh8JThRSau2eDWrS59Hsfqz+zH+01pX7QHh1lZF03xPZKBfacW6H++nqp/SvdBg9q/F74R/Em8+D3xH0fxZZlttrII7yJf+Wtuxwy++OD+Ffr3Y+OrPUtNtLy2jkdLiJZUyMcMAR1+tfMZpThgZ8z2Z6+Fm8R7q1Z034Uu32rmV8ZjdzbNj1yK19M1q31P5UO1x1U9a8aGKo1HaLO6VCpBXki9j2oOB1HFKvWvGfjncfErxNND4S+HkEej/AGpCb/xPe/6u0jzjbEnV5CMnpgevp2xjzO2xz30udV8QfjV4F+GkP/FTeJbDSmf5VhklHmMfQKMnJr4w8E+OdD8P+IvHp8MeF9e8b6ZdXv8AaFotvAbRLfzACyuzds5OcdDX0T8JP2L/AAT8Pboa1rSzeNvFkh3zazrp85t3+wjEhR7c14DrPiTUz+2L4+0lrpzp32aEi1P3V2qApA+n8q7aahyz5NVa+pjJu6Y3UI/if46ea283Rfh3pMg3A2qm/uyPTe33G+nFaXhX4FeA9Dmj1LXrO/8AHuuhg7XPiK48yHd6iIfKPyrtq8/+MfxUtvhj4e87b52pXIKWsPbPdm9AKyjOpNqFNW9CnaKuzrL7xPo2l3yWU15Z2M7jMdqpCYXsFXsPau28K+EW1i3S/vx5dk5/dQch5R6n0X+dfO37M3wDv/iPrC/EnxysklqJPM060nyGuGz/AK0jtGP4R3r7N2/KBgAAAADoB6V5+PqRw8vZU5Xl1YU71FfZEKqFjRFQRogwqKAAKTb7VPtFG0V8825Xv1N+lkcf8UfhxZ/FbwTfaBct5U7/AL2zusfNBcLyjA/WvFPhZ4ru/EGi3Fjq0P2bX9Hnaw1CAnnzE43fRhg/jX01s69j2NeB/FrR/wDhCfjHpHiG3RU03xVE1legEAC7iGUf6sh/SvXwNa69hLtdfqRJWd0a9FFFegSFFFFABRRRQAUUUUAFFFFABRRRQAUUUUAFFFFABRRRQAUUu2jbQAlFLto20AJRTtoooAbRTqKAG0U6igBuDRtNOooA2tHgmt9Ju7/T7SHUtaVxDZWtxIEhEjDiSQn+Fep+lc9ovhm38Gy6hcNfNrnirU28zV/EEow87/8APOMfwRL0VRwBU9FUpNKyATb70baWipATbS7RRW3rXhkaFZ2r3GoWxvLiITrYoSZlTIG5hjgZIGfcetAHi3jfQ9T+K2oXnh0efpHhqzANxdAASXs2MhFzkBFzye5+ldJ/wTfvLbQ9W+IfhWdETVbW7SYyZ+aWLlRkexH/AI9XVV53+zfqMWh/tva9aLshXUNIdNnTewMb59zhW/WvQoTcqU6T2tf7jGaSkpH6A0UAikLD8K886Rdw9aQsAM54qG4uI7eGSaRgscalmb0AGa+M9a/4KUeHrTxBLb6Z4T1PVNHilaMX8ckSGUAkb0RmBwe2cVtSo1K1+RGc6kafxH2nuFGa85+C/wAc/C3xy8Pvqnhy7dmgIS5s7hdk9sxGQHXt356HtXogPArKUXF2ZaakrofRRRSGFFFFABRRRQAhph+6aeaRu4pAfjJ8bNBn8NfGrx1p1wuJI9WlkGfR8OP0auP8uvsH/gol8IZ9H8Wad8RLC3LadfxrY6myL/q5VJ8qRvZgSpPqF9a+Qdv+FfeYOsqtKLPna8HGoyvcR+ZazqB95G/lX6kfArXX8S/BfwXqLtl5tNjDH3XK/wBK/L1o5ZFEUMZmuJT5UcaDLO7HCgDvzX6l/Bfwlc+BPhL4U8P3mBd2dgom45DtliPwyK+T4qcfYQUt9T3cli/atrY7D8KfBM9rMkqHDqcjH8jSY70n3T6V+Yr3bOO59q7S0Z1Gja9cahfiN1VY9mTtGSa27q6gsYTNcTRwRjq8jhVH5182/GD4X/GL4jXFrbeCfF+l+C/D6jM00bSG8uCeoPyFQo7YPPHSub0P/gnzbakfO8c/EvxV4okcZeGG7a2iz34DHI/Cvu8FSjKip1p6/efJYmX7xxhHQ+hfEXxv+H/hOEyar4x0a0UdjeIxH4KSa+CvEnxa8J337XXibxLZ6pFL4f1Kzht4tQVT5ZdIxk9M4Jz2r6z8O/sPfBrw7YvbjwZa6i7qVkudRd5pnB9WzX5x/GHw5ofhP4r+LNE8NpLHomn372sCStuKsnDqD3AYED2Ar3sDRo1nKEW9UeZiKk6fLJnvPib9qDw3pe+PTLe41aYbgGUbIsj/AGj/AIV5ja+Efid+0nqi69pWhreafaTKImuJBFarhgSo3A7xxzWX8A/g3c/Gzx7HpbM8Oh2QFxqt0nURg8Rg/wB5zx9Nx7V+kmk6RY6DpNrpumWsdnp1qgjht4xhUUDH5+9c+NxFDK3yUVeb79Ap8+JXvaImhXbZ26GNYWSJFMcf3EIHIX27fQU6nYz24pcCvh5ScpOXc9LZJLoNpKfgUYFSMjrzT9pDQbvXPhLf3FhALi90W5g1aOPviM4fH/AGJ/CvTwtTeTFcaPqcEiK8cltKjoRncpjOQf1rpw0uWrF9iZLRng+mXS6hptrdKQRNEsnHTkA1Z21x3wj1qHXPA9m8KGNbd5LYqe2xyMfliuyr6GSs2jMTbRtpaKkBNtJtNOooAbg0U6igBtFOooAbRTqMUANop20Um2gBKKXbRtoASil20UALRRRQAUUUUAFFFFABRRRQAUUUUAFFFFABRRRQAUUUtAGD408eaZ8N9An1zU0adISFgtIxl7qY/ciUdyx/TNaGgaJq2maV/afipRL4z10JfX8m4kW0ZB8q1T0VR6YycVxvgzw3H8XvjRc+IdVUy+B/AIzHEwOy61M9vcINv0ODXperapPrGoTXdwxaSRs/QdhW0oqCS6vcRTr588WaoPhz+1f4K8Twy+UzXNrHcFugjkZ4X/ST9BX0HXzV+2Bposf7D12FHWdS0XnDoGXEiZ/75NdGDa9ryvZpoyq/DfsfqdDIJI1ZeQRnNONZfhm5+2eHdMmBz5ltG2fXKitXFcMtJM6IvS545+1x4uk8E/s9eMtQhYrO9k1rFIpwVeX5FI+hYV+TUMKwwpGn3VXaK/U39uLRZ9a/Zn8XxW6l3t447sgf3Y3Dn9BX5ZLKCg+lfVZRb2UpdbnkY1++kekfs9/F67+CfxU0vXVlZNJupFstWgJ+R7dyBvx6ocNn0BHev17tbiO6topomDxyKHVh3BGQa/DqaNbiGSJvuyKVP4jGa/WP9kHxpJ47/Z78H6hcSGa6htBaTuxyxki+Q5/KufNqKi1VitzbBzbvFntApaRelLXzp6QUUUUAFFFFABTG4Bp9FAGB4t8I6X458PX+h61Yx6jpd9EYZ7eYZVlP8j6Ecg18IfED/gnH4p0/UZG8Ea/Z6lpbE+Xa6yWilgXsvmKCG/75Br9DaTIrpo4mrh3emzKdOFT4kfBXwF/Yu8UfDv4hW/ijxx/ZUtpp8ZaytrK4abNweAzhlXhVzj3PtX1SxJYt3PUmt7xbJKbyONjiDbke5rBr5HNcZLFYhyqbn0WXYeNGkuUSkPU578cU6krxemh6Z5L8Z/Bnxg168tLr4ZeP10ZQNtxpWoLEkQx/HHJ5TNn1U5H0rltC8Pfte6LIGbxd4P1xVXi2vSPnx23RxKfxr6Ghha4mWOMbnboK4j4xfHbwp+z1YibV7kaj4hkjLWejWpzKx/vN/dX3NfXZbjMTVjGjCmpebPncZh6NOTqOTTPB/F/7anxn+Fuqto3jj4faVY3jrmKaGSVYZVx95Hywbp04PtXxnf3k15c3l7cOZrm4le4lY55diST+ZruPi78cPFPxw14al4julFvET9k0yAYhtlI7dyxHVqs/s/8AgHRfil8VdL8Pa9ftY6fNHJKVRwj3DKMiJW7E1+i0YQwtJ1ZRs7a2Pk6k3VnyJ3PuD9mn4daZ8P8A4PaMdNuE1GXV4k1G81CIDE0jqMLn0UfLj1z616hnODXimi/s0t8PNatrr4e+O9c8MaekivPol432u0mXPzKAeRkZ6ete1nt3/CvzPGSVWrKrGXMme5TTjBJoKKKK881CiiigBK0tHjWRpEcbonBQgdwwwf51nxo0jBQOa27G3EGxMclgT+YrSN07hZtHyJ8KtBk8KWOvaJOAtxY6zdxumeVBfcuf+AkV29cxZ6hBJ8avixZxyq7x6ys21TnhokGf/Ha6evp5b37mEdgoooqBhRRRQAUUUUAFFFFABRRRQAUUUUAFFFFABRRRQAUUUUAFFFFABRRRQAUUUUAFFFFABRRRQAUUUUAFch8VvFNx4R8E3t3YxtLqMxW1tEUZJmkO1OPqa6+ql5pNtqF9pdxcJ5v9n3cd7GhPyl0OVz7VUbKSb2A6O18MwfCz4Z+HfBMEaG5SFb7UbjOXlunyZGJ9SzN17YrHq3qmp3GsX815dOZJpWySf0H0FVKJScpOTAK4f40+D08cfDfWdOIBmWFp4M54kUEjGO55H413FIyhlKnoRiiMuWSkugmrqx6j+x/8Spfih8BfDep3Tbr+3iNjdH1li+Rj9DivZpriOEDe6p7k4r4m/Yg8YW/gn4k+PPhpf3KrI16dR09W+UOj/eAHrmvrTxRYSmT7SpLR45/2ajMJSotzir31XobYaKqPkbsafiDRrLxb4e1DSrtVuLK+t3t5U6gqylSPyNfjj8S/hzqfwh8dar4U1eJ1lspD5EpGBcQE/u5F+o6+hyK/WOx1GbT5VeNuD1Tsa4L9oz4NeHv2gPCIhmddN8R2q77HUtmTG3dGI6oe4qsqzinSn+90uLG5fOS93U/LQNhhX6Df8E0r67m+F3iO2mLG0g1eQwbunzctj8c14HF+wL8RpGEa614d3ngHzH4+nNfdv7PPwpsfgb8M9N8MJdR3N3HmW6uFOPNmblm/OvoMfmGGr0VGnK7PNw+FrUqjc0eqr92lpqfd4p1fPHohSZrh/jV42u/hz8MfEfiSyt1urvTrNp4onztLD1x25r8tPF37XXxc8XW8txdeNbvT4pF3CHSlW3AB52grg9OM134bB1MSm4dDnq140mkz9hKK8u/Zpj8Rp8FfCx8VX82pa09mjzXFw26RsjI3HufevUa4pR5ZOJundXCiiipGFNpaT7tIDP1bS01S3KNw45VvSuLvNNuLGQrIjAf3wMg/jXolRPtbqARXnYnBwrvmWjOujiJUdDzbnIGfwFX7HRbm8RnAEaAfek4rlfi5+018N/gvG41bU4bvVcZj02xxLOx+g6V8P/Gb9tzxx8Xnl0Pw7DJ4a0W5zGLWxzJeXGexZemRngY96rC5BOprN+6VXzVR0itT2b9oz9ryH4c3lx4b8Cy2+qa+oKXOpnLQWTdCFA+8/wCg75r4g1TVr3XdUu9V1W+n1HU7li893dPvkc+5PQegHavZPhx+xv8AEDxqsV1qkMfhHTJPmMupfPcOPUR9c/WvpDwV+xj8N/CZil1S1uPFl6nJk1N8Q59ox8tfWU8Rl2T0/Z03dngVXiMW+aeiPgG1LahcCGyilvpumy1jaZvphQa6zTvhj8Q5bi3vdL8HeJop4HWaC6hsJI2RxyCpIFfp3o+jaZ4dtUt9J0yz0yBPurawLHj8hV9riWTlpWY/WuKpxI5NqFPT1JjgrdTxX4JftCSeLobXwz49sLjwj8QETaINSga3j1IDA8yIsMb+mVHfJHt7XIrRttYFWHGD1r5i/b8FvJ8OPC80keb6PVD5M4O1418s5Abr1xXknwk/bR8U+BYIdN8TW58Y6NH8iSSSbLyFfQSdGA9DXn/2XLH0frWHW71X+R0+3jRl7Ns+98mjd718ur/wUC8IZ58I+IPfEkZ/pTx/wUB8Gd/C3iEf9+zXF/Y+O/59mn1ml3Pp/d71NbWsly3AwPWvmCP/AIKAeB1iaQ+GfEEki/ciZUAb6tjivMviH+3n4y8UWk9h4Y0yDwhas3F0r+beY9M/dH1Fa0sjxlR2lGwpYqkle59p+NPit4J+E8anxR4jsdIkcbhDIxknYe0agsfyr5P+OX7c2qane3Wi/Dho7DSgPLbXpoj582RyYkYfIO2Tk8dBXybfXlzq2oS6hqF1LqF9M2+S6unLyMfQk1CW+tfW4PI6OHlzzXMzzqmLlNWjoe9/sqTS3HirXp5ppJ554PMlllYs0jbx8xJ6nmvpqvnH9knSXkfXdVMgMa7bZY8cg9Sf0FfR1eXmDTxMuVW/4Y7sPf2auFFFFeedAUUUUAFFFFABRRRQAUUUUAFFFFABRRRQAUUUUAFFFFABRRRQAUUUUAFFFFABRRRQAUUUUAFFFFABRRRQAUUUUAFLVXU9UtNFsZby+uYrS1iGXmmYKo/GuJ8L+KvGHxk1Sa1+Gemrbadbvtm8WatF/okWCMmND/rD19q0jBy22A4D9oaz1b4HfHPwP46+xFWZBKyIQrSBThl+pX1r6l+Gf7Zuk/F7UbfT9G8D+LTBMTG+pyacGso3A5DSKxx+VeS+K/gJp+oakw8X+K9Z8fapGCr3N/clYIW7iCNcBVryXSfj54x/ZZXxD8O9CNrcWN1MJdO1C9BDWJlIyxP8YHv0xXpSUMXRVGKvOK/A5U5UZ+0ex9/zqfMbMfl88qOlNrhPg54N1PwX4Ht01nX7nxLq2oH7ZcX8zbkZnGQI+eE57V3Ga/Na8PZ1XGOtj7WhNzpqXcfTeck98cUlSQRmadEH8RArFNtpGsrRTbO60Df/AGXDvJJx3rSFRWsQht0QDgDFTV9tTjywSPlZu8myhrGl2utWM9lfQJc2lxGY5YZFyrqRggivlWD/AIJz/D618dJrQ1HVW0mOYXCaIXQwqwbcFzjcUz/D+tfXG0HkijaPSumnWqUr8jtcxlCM/iRXsbWOzhSGFfLhjUKiAYAA6CrNIFA6cUGsixaKa1MZtooAkPSo2YRrknA7+leb/Fb9oLwR8G7Az+JtbhtrnGY7GFhJcSn0CDn88V8H/FT9sb4i/tE6vL4a+HOnahpmkyHYF09Sbucf7cg4jH0NdlHDTq6vSPdmE60Yabs+wvjT+2J4A+DLS2dxfnW9eUYGk6YRLID23n7qfiRXxZ4+/bB+LPx41STQvC9tcaNbTEhdO0JTNdOp/vy4wn1GPrXRfCr9gu7uGi1D4hakbZHO9tJ05y0zE/8APWb+gr6z8GeB/D3w70tdO8M6Na6Naj73kJ87n1dupP1pVcbgsC+WkueXfoYctWrvoj5F+G/7But61Kup+PtYOj+e2+SztHFxey9z5kpJVT+dfVHw9+EPg74VQBPDWhW9ncgYa+mxNct9ZDyPwxXW5NLk18/ic0xWKdpSsuyN6dCnT2HMzMSzHJPPekptFeT5m4+ob6+t9Msbi9u5lt7S2QyzTSHCoo6k1IuWYD19OtfFH7Zn7QK65fS+AfDl3usIGA1W7hPyyyf88lI7Dv716WAwM8fWVN7GVWoqcbvc8s/aO+PMnxm8cFbaVoPD+nkxafadTJ2MpXuW/lXI6L8NvGniaNTpHg7XtRj7PFYSKn/fTACvrH9ga+0u+8Da/Z/2fZf2tp10r/aGhUymFxx82M8Fa+qmuJZF2tIxXOQO1fW4jNnlr+q0qfw9Tz44ZVl7STPzZ0/9k/4v6nGrp4KmtEP8V9eW8P6F81u2v7E/xauFBew0W39pdUQn/wAdBr9Bsn1pK82XEWKe0UbrB00fBcf7CPxRkXc0/huL2Ootn9IzT/8Ahg34nf8AP54Zb/uIv/8AG6+8aKx/t/GdLD+p0j4Jk/YV+KqcofD03+7qR/qgqqf2HPi32s9EYf7Opj/Cv0Itrow/KeV9avLIHAKnIqXxFjI9vuLjgqUj4K8G/s2/Hv4ZzXVzo9jpckTqGmshqCOJdvTAIHzduop9x8evGXgaYp468AanpEOcfaPszoo9fmIKn/vqvvMNt6Zok2zRmKVFliYYMcqhlb2INY/226sr4imn5rRmywrpq0JHyv4J+LXhjx/EDpWpRvNjJt5CFkH4d/wrsa3PHX7K/wANPHksl1JoC6Fqh5GpaIxtZQ3qdvDde4ryPxB+zT8W/ArfafAnjhPFFlEpCaXrmEm2+m/lSfwFdVPEYbEO0Jcr7P8AzFLmh8SPQKK8MuP2gPEHw9vBYfEnwRqXh+UFVN3HETCfUg8gj8a9N8L/ABM8M+MYVfStYtbgsMiMyBX/ACNdM6FSmrtaCjOMtmdNRS0lYFhRRRQAUUUUAFFFFABRRRQAUUUUAFFFFABRRRQAUUUUAFFFFABRRRQAUUUUAFFFFABRRRQA5EaRgqqWY8AAc1H421fTvhRoUWseKI5y9wwi0/RrUbr3UJj92ONOvPr0A5rF8b/HCD4I6XbHTdLHiDx1rTm20XTOy/3pn9FHr7Gq3hTQdVF8PEvivU317xnOh8zUJBhbZWHMUCjiNcccde9aqPKlKWwjz+L4Q+Ifih4qj8R/FMfYNM3+bb+B7CYrFCh5VZ3H3mxjI5/A8V7/AC+Kp4dITR9Mhh0bRYk8pLGzQIgUdie/171jEljknJryH4qeMNe8UeJrH4Z+ASsniXUx/p1+MldLt/4pGPZsZx/k1rzTxDUNl+CFpHU9C0Xx54Z8Uazqml6HrUer3elsI7traCQwpJnBQS7djEexqDxr8P8ARfH+j3OnaraJIJl2idVHmIezA+orR8L+AND+Ffhu08LeH03WlnzPeMcyXk5+/M57knP4Vyfxu8dN4D8A3txazMmr3mLLT0j/ANY08nyrt9CM9e3FQl+8SpB01PH/AIT/ALQ+tfs4+Ob7wpruoXHiLwfb3DW7q2XltAMfvIs9QAeVz9OeK+8PB/jTQfiBoseseHNWtda06QDE1q+dh/usOqt7HmvnbS/gDpHhn4b+H/C3iCxj1K4NnHeXUk6/vDcSfM77uobPceleOa58A/F3wr1yTxH8MdevLSYHJhifbIVHOxh92VfZhUYzBYXHS0fJU79H6muHxNbC6bx7dj9BgalspDHdwsPmO8fdNfHHwt/4KARabdJpfxV8OXENzD8j6lpcRGWzjMsBIK/VTj2r64+Hvx6+FPxAVJfD/irSZpmx+4mmEMwPpsfB/IV4MskxdF3mtLnqPM6NSLUdz1iL/Vin1DHMjqGRwynkEcinbvevZ8jy9ySio1J7mnZo9QFoY4pkkm1a8A+NX7Xnhv4cagPDWg203jfxzN8sOhaT87K3rK4yEX61cYym7RQm7Ht+ta3aaDYz32o3cNjZQoXluLhwqIB1JJ4xXx78UP2z9b+J17d+C/gHo934l1UkxXHiLyttlajkEq7YB789PeqTfA/xn8eb5Nc+OGuSR6YzCSDwPoszR2kQ6gTvnLtjrXufh7w7pPhHR4dJ0LTLXSNMhHyWtnEI09iQOp9zzWc8XQwz0XPL8P8AgmbvNWWh8u+A/wBhT+0NR/t/4qeKLjxHq0rB5rOzlJUnrh5j2/2VGK+nfCvhHQvA2mpp/hzSLXRrRRjZaxgM3uX6sfxrW3N60lePiMfiMS/flp/XQFTjHW2o5aP1puaMmvONR1FNyaNxo6XAdSgFjtAyenAzTVyxwASxOAPWvn745fGXXtU8S/8ACrPhaBfeMbpcalqicxaTCepLD+PB/DtXVh8PLEStF2XciUuVGf8AtIftNTeH9T/4Vz8O4G17x7f/ALiRrMeYLHcMYGOsmPwA5Nee+HP+CfeqzeFZr3xF4vXT/EbRPP8AYLa389FkwW2ySEjJz1IzX0D8Cv2ftA+BWjSC3/4mnia9+fUNcuBullJOWVSfurn8+M1B+078XB8IvhTeXVq4XWtUzY6fHxldwwz/AICvoaGKdGccLl63er7/APAOWdPmjz1D46/ZB+JA+HXxqsrXUJVh07Wt+kXWT8qy5Ijb/vtQP+BV+j8gMblG+8pwfavxuEb+SFWRklyHSQHBDg5DexzzX6cfs0/GSP4zfDKzvbhwNe01VtNSizyXAwJMejV6PEWBaccSuitIwwdRawPV80ZpM8ZByKM18MeoLmjNJkUZFAC1Lb3XkuM/dPFQ5FGRSauCbRsKcjIORRVOwuNx8on6VcrmlozpTugJNHHpRRUehS8yHULO21ezks9QtbfULOQYa3uoxKh/A14L4+/Yc+HHjOaS50RLrwPqr8i50liYQeuTGxHH0YV9AY7DqeBxXy5+258fz4F8ON4G0G48vxDq8R+1zI3NrbHhhx0Zhx9Ca9rKpYueIjTw82r/AHfccmI9moc00eK/C34ja5ovxVm8DxeJI/GOiW9w9umpNEVYherKT1APHce9fTFfOf7Jfw6+w6XJ4puYtrXIMdpu/wCefd/x9fTFfRlfU4zk9q1Dpv6nLR5uT3mFFFFcJuFFFFABRRRQAUUUUAFFFFABRRRQAUUUUAFFFFABRRRQAUUUUAFFFFABRRRQAUUUUAYdp4N0228Y3PieSH7Vq0tsLSOWf5hbxg5IjH8JJzk981uUVFd3UNjay3NxIsMESl3kcgKqgZJJPSndsDi/i58QX8CeH41sYDfa/qUotNNskI3yytxnHoM5NX/g/wDDmX4P+Hb2K9l+1+MNYYXGtak3LliMiFT2Vc9Kp/AnRZPFWpXXxq8Q2ha3aRrPwhp9yMBIFJBuiv8Aebr9D6V3dzcPdXEs8hzJI5dj7k5NdEpezj7OPXf/ACFa+pFXC614bk8afGTwfHe2TTeHvDcc2t3LEfLJLlUiT3wcmu6qSOeSJXVJGRXG1gpwGHofyrGEnB3Q9y3rmrSa5qlxeyja0rZCjoo7AVQooqAOb8VfDrw740hZNW0uG4Zht84KFkA/3hXh3if9jGwurxJtF1p7WPq0d0m5h6YcfNXtvjr4leH/AIdWK3GtXyQs/wDq7dPmlk+i186eMP2k9f8Ainbz6D4C8PanczycNJp8byzDB7FBhePU16eE+s/8upWXd7HNV9n9pXZweoeLfGnwV8VXeleH/iFqsLWpVWeyvHaPOOhDZ6eleofDT/goF8UfBuqL/wAJBe2/i/SipV7eeJYZgccESA889c14V4w+FPjbwHpNjq3inw3faLaajIywy3rJulfqcqHLA98kVyG7qeo6EjpX1kcPQrQXNaXmjx3VnB3i7eR9jXP/AAU2+JM0itb+HPDsEec7WmlYkf8AfNb/AIf/AOCp2vWdwg8R+BLOe0H35dKvT5n4K4Ar4t8M+GdZ8ca/Donh3TLjWNVmPFvbJnYP7znoq+5xX3d8Af2K9G+HrQa743Fv4j8TbRJFZ4zZ2RPsf9Y49SMegrx8f/Z2Cp+/HXsdVGpXqs6G++JXxb/avt408P2tz8Kfh7MP3uqXuP7Qu1PVY1HQEd69H+F/wZ8I/BvTzB4d0/8A0ubm51W7PmXdy3cu55H0rsmkZ8ZOAOABwB7AelN3fSvz/E46ddckFyx7d/U9hR7k3mc5zznOaNw5qHdRurzdSibcKNwqHdRuoAm3CjcKh3UbqAJtwpfvDuSemO//ANeoVJbgDJr5O/aX/a5uNN1Bvh58L1/tbxXduLW41K2AdYJG48qH1f1bov8ALtwmEqYuolBad+iM5zUNz1T4w/GibS9Yj8A+BHj1X4i6kPLWOE7k01D96aVv4do/Gup+D/wf0n4OeG3srNjf61et5+q6xLzLdzHljnrtz0Fcl+zX+z/bfBHww1zqMv8AanjbV8T6tqchLtk8+UrHkgZ5PevYA/4mtsTUp0l7Cht1fd/5BFe096RYUAn5jtA5J7fjX5oftX/F0fFT4rXos59+g6NmytMNlHK/fk/E5r6s/bA+O6fCX4fvo2mSqfFWvxtBbKrfNbQkYec/gcL6k18c/s5/s66r8c9cjYCbT/CNq+bzV2XiXB5jiJ+8x7ntX0mSYeGHpyx+JfocGKlKpJUoHE6d4Z17W7F7zTNB1TUbReDc2lo8sX03KMV2nwB+M1x8E/iRb6m5caXOwttVtWBB8sn7xU916/hX6beG9FsPBOg2ei6FB/Z2l2UYihgjYjAHc46k9SfevPfjX+zr4P8Ajnpsw1WzTTdfCf6NrtlGqzo3beBxIvqDz6Gtnn9HFOVGtTtGWlyY4NwtKL1PT7W8tdQsbe9s51ubO5jWaGZD8rowypH1BqXIr5U/Zz8c6x8EfFX/AAo/4jyrHc5afwzrIYm1vImOfJDHkHIJAPQ5XsM/UnK8HqDg+1fI4rDvD1Gl8L2PRpy5lruT7hRuFQbqN1cZoT7hRuFQbqN1K4FhJNrgjtWxHIJFBFc/uq/p826MpnkdKxqK+qNKb6M0sikLAfTvUO6kkmjhiklmkWGKNS7yO2FVQMkn6CsNZNJG+xx/xo+K2m/Bj4f3/iTUWVpI18u1ti3zTTEfKoHf1r84Ph34f1b4/wDxUudT1syXMc0xutQmYkqEz8sYP5DFaH7SHxi1D9pT4rx6foKPPoGnymz0q3TIE7Zw1y31xx6AV9N/CH4ZWnwt8IwabEFe9k/e3c453yEcj6D/ABr9HwtFZVhdf4k19yPHnL6xU0+FHYWFjBplnDaWsSw28KBEjQYCgdBU9FFecdQUUUUAFFFFABRRRQAUUUUAFFFFABRRRQAUUUUAFFFFABRRRQAUUUUAFFFFABRRRQAUUUUAFcL8TbW58ZPpXgDTHP8AaHiacWcpT70VryZpPbCBvxxXdVT8G6XF4Q+J2peNlAvdSn09LC1jmHyWoBJdh6luPTpVwaTuwOu8ZJaaTcWnh/TVWHStFt0sreGNdqrtUA8fXP5VztS3FxJd3Ek0rF5ZGLMx6knqaiqACiiigAryDx18a7q412Twf8P9Nm8TeLHG0/Z03Q2xPd26DFem+I9Fn8RaLdadb6lLpEtwnli8hUM8eepANdn8N/hn4c+E+hrpvh2wFqX+a5vpBuubpj1d36nPp0qJ16eHXNNXfTt8xNN6I8E8BfsQjVNQGv8Axb1yTxHq0h3HSrWQrbrnna7dWAPYV9O+G/D2k+DdMXTtA0q00WyQbRDZwiP8yOTVhWx9e9LvPrXjYnHV8T8b07LRBCnCOttT50/aS/ZJ1P45eNLfxHpXi6PTZxAsMljqiPLAu0Y3R7fuk9/euQ8I/wDBO3T7e6E3izxncajCh5tdKg8kMPQu3IH0r668w+xpN3PWumnm2Mp0vZRnp5Gbw9OcuaSMHwD8N/C3wt0gab4U0W30i2/jkjGZZfdnPJNdMTu/+tUG8+tG8+teZUqzqy5ptt+Z0RtFWSJ/fqaKg3n1pC59ayAsUVW8w7sZ4pRIe5waOtgLFFV959aN59afWwFilVS2ecY659PWq29twABOcdvXpXyR+13+1R/YIvfAXhG8A1NlKarqUTZ+zKRzEp/vY6+lduDwdTHVVSp/eZVaipx5mU/2s/2tDF9r8DeBbtjIxMOo6tbnJznBhiI/Imur/Y5/Zpj8A6ZD438TWqt4mvYy1jayjJs4W5LH/bbg57V57+xz+zKdW+y/ELxbZkaep8zSNNuB805/5+HB/hz09etfbXmbmyea97MMTTwtL6lhHbu+5zU6bqP2kixy3JOf51heOvG2lfDfwnqXiXWZlisbCMyFWPMjYOEHuTWru3YUnk9+1fLXj7SdS/a2+LkvheIzaf8ADHwbd+Xqt2VMf2+8GMxIDgnA45+vcV4OFpRq1L1HaK3/AK8zpqPTTc85+EPwr1f9rj4lah8R/HCyx+FDJiK1Y7ftCr9yJf8AYHfHrX3RpWl2Oh6Xa6dplpDp+n2qBILa3QKkagdABVfSdLsfD+m2umaZax2On2iCOC3hGAij+tW959a3xuOni5+5pBaJfqKnTUFd/F1J+nTgelLwvOPrUG4+tHmH1ryt9Ohqed/H74K2Xxy8CnTHkFn4g08m60bUU4e3nBzjPXDEDiuc/Zp+NF98QNKvvCfixfsnxA8Mn7NqFu/BuEXhZl9eBzXs3mY5zivi39sTUrn4L/HrwT8Q/D2bfU7y1k+1RDgXCxsoIYDqCGI5r3cD/tsHhJ6tapnPUfs7VUfa/wDKjNYfhXxVY+NvCukeItMfdp+qWqXMPsGGdv4HI/CtPzK8icXTbUuh0J3XMizmjNV95o3msrDLFS2s3kzA9qpeYaTzM98e9Frod7M6MMDivjz9u79oI6LpZ+HGgXWNQvUzq00R5ii/55AjoW/lmvafjl8cLH4H/Dm61q5kjm1WbNvpdlnLzzkcYHovBJ7D618EfBf4e6r8bPiNca7rkr3FqLg3eoXEn/LR85EQ9u1fS5LgYJvGV17kendnPiKz0pw3Z61+yn8HV0XTR4t1W3X7bdLiyjccwxED5vq3X6Yr6NpsMKW8SRxqEjQBVUDgAdqdXZXrSr1HUl1HCCpx5UFFFFYFhRRRQAUUUUAFFFFABRRRQAUUUUAFFFFABRRRQAUUUUAFFFFABRRRQAUUUUAFFFFABRRRQAUUUUAFFFFABRRRQAVWsfjZpuk/EC18F6/mxuL+AS6XfyHEdw+cNCx7MMZHrmrNcF8ZPhVbfFXws9l5q2eq2586wvtvzQyjkHPXGaPZwq+5U2E720PoPcVOCMEcGk8z2rh/g7qut6r8N9JPiOMpr9rus7z/AG2jIw4PcEEHPvXYiT3r5mtH2M2uxa2J/M9qPM9qg8z3o8z3rIZP5ntR5ntUHme9L5nvT62Am3+1G4yEAfe7VB5meh9q8z+PHx+0L4E+GWur2UT65cxsNP05GG+Rum8+iDufwrajRqYioqdPcmclBXZjfFb9pK28J/EbQPh74Zsk1rxTqV1HHdSPzBYxsw3ZA6ttz9K9tkbbIcHoefWvjv8AY9+DOs6l4muPi34wiZLm9Z5NPt7gYeQv1mx2AHAr688w4GWy3971rvx9KhRao0t47vzMqUnJXZP5ntSeYew9qhLkdeCfevM/j98ctM+CHg2a/kKXGuXYMem2JPLuR98j+6vUn2rhpUZ15qnTWrNpyUFzM439rD9pRfhTocnhrw7cKfGF/F+8nByNPhI5b/fPOPTNeA/sq/syyfFLUV8W+LbeU+F4JTNHb3AO7Upgc7nzzszyfWmfs+/s+638ffEk/jvxu8x8PTTmdpJPlfUpN3KoD/yyHTPTjAr76sbW30yzgs7SCO3tLdRHFDEMKijoAK+qxOIpZTReFw2s3uzhhTdafPPYueYFCqqqsaDaiKMBQBgAAdBR5ntUG/3o8z3r469/eO+JPuo35Zu24lm4+8TjJPvwOfYVB5me/HSua+I3xI0P4U+E7nxD4huBDZRfLHCD+8uZcfLGg7k/pV04zqPkp6tilaKuzr4o5JASqM2OuB0pJN8f3lK/UV+XXxa/aM8afFvXZLyTVrzQNKVsWmm6dcNCsa9izKQWao/C/wC018UfAsKxaf41uprZOfJ1VVuVH/fXzD86+s/1bxEqalKSv2PP+vQ5rJH6j+Z3OMetKu6Q4VSW9AM18OfDv9pb9pP4sTJb+D/D+l6uudral/ZJjt4z/tSNIF/Wvovw7+zv8Z/GliknxB+LMmjCUfvNL8K2iQrj081hnP0GK82WTVKL9+aR1wrKpqkdn44+J3hX4Z6e154o1y10pVGRCzhpn9lQHOa/Oj9pL43D45/EBdVtYJLTQ9PhNrp8M3DlSQWkI7FiB+VfWPj7/gmTpGrRzX2heONZOs4LCTX3F4rn0LcMo+ma+KPiB8I/F3wz8dL4P1rSyNeuHC2aWx81LtScK0Z7jJHXBGa+qyfC4TDydSM25+ex5+KdSStbQ+4v2GdSmvP2e7S2mJKWOoXMUBz0jMjMAPYZr3wN71wPwR+Hf/Cp/hbofhuTBvLeIS3bDp5zcsAe/Ndzur4jHVI1MTOcdmz0qUeWmkybd70bveodxo3VwmhLu4/TFcH8XvjZ4c+Cfh46nrcjT3coIs9OhP724btx2Gepqh8Wv2g/B3wT8qLxBdyz6rMu+HSbFRJcMP7zDOEB9SRX51/Fj4man8XPHV94j1NmQSMUtbfPy28Q+6ox0OOpr6TLMpni5KddWgvxOKtiFSXKtzZ+IHxF8WftF+PNPlvF33Uh+z6fptvnybVC3IA7+pbvivtP4T/Du0+GXg2z0i3w8wXfcTbQDJIepOK8b/ZL+ET6bZnxlqiYuLpDHYwumCkeeX+pP6CvpWvczCtFtUKStGP5k4em4rnluwooorxzsCiiigAooooAKKKKACiiigAooooAKKKKACiiigAooooAKKKKACiiigAooooAKKKWgBKKWjBoASil2mjaaAEopdtG2gBKKXbS7aAG0U7bRtoAbRTttG2gDV0XUxDi3kO1GOQx6A10Lh42ww69+xridteUftE/FLxL8KdH0fX9Au1M63H2eS0ul3wTRkdGHX8RXNLB/WqijDdg5cqbZ9FeZ6jHr7UeZmvGP2fv2lNN+OUdzYTWf9i+JbWPzZrFX3Ryx9DJG3cZ7HpmvYd479a8evh6mHn7OorMcJKauibzcYHr0pVZnbaoLMeAo4yfTNQqdzEA4AGWycAfWvkf9p39rI6f9t8HeBbsPdENFqGswtkRdmjjP97nk9q1weBq42p7Ol8yKlRU1dnbfH/9sPS/hbNNofheO31/xLHxNPI2bWyPcNg/Ow9OleIfAn4O+If2kvH58feO5JrrQ45RLJNcDaL5lOUhjXjES9+MHGPU1kfso/AP/haXiVvEGtxSN4X02Xc5b/l8nBzt56j1r9BYUhtYYoIII7aCNQqQwqFRAOgAHQV9Fiq1HK4fVsMrz6s46cZ4h80tiyJAsaKiCONFCJEowqKBgADsKTzO4/lUO7OOc54riPjB8YdG+DPg+fXdWkWScgpZWeebiTsAPSvlKdOdeqlHVs75SUFch+OHx00T4E+FDqWogXesXCsun6Ur4aYj+J/7sY7nv0r5q+DvwZ8Q/tMeLz8SPilLO+hs+bPTTujFwmeI1X+CL9T61b+DvwR1/wDaA8WN8UfiiJf7MnffYaVISBMAcqMHpGP1NfYsMcdvCkMSLFDGoRI0GFVR6CvelVp5ZSdKhrUfxP8AQ5knVd3sTwCG1t4ra3gjtbWFRHDDCoVI1AwqqOwA4xTvMqDdRuFfOyet2zqVrWRP5lJ5lRbhSxhncKueanTcZFqus2Wg6TeapqVwlnp9nE001xIcBFHJ+pr8zvj98b9Q+OPjR9TuWa20Oz3RaXYk7Vijz/rD/ttjJP0Fes/tgfHCfx34ii+G/hXzLq2hl2Xa2oLvdT54iGOoB616V+zj/wAE/YES08RfE9RcXDBZYtAjb93H3HmnufYV99leGp4Gl9ZxHxPZHm1uatLkjsfLfwk/Z98efHC8UeGtHMWnbgJNXvwUtkHfHGXP0496+6fg7/wT18C+CBb3/i1n8a6wo3YuxttI2/2YehH+9uNfTml6ZZaLYw2Wn20VnZwjbHDCgRUHsBVvzD61piMyq1/h91G1LCxprXUbpum2Wj2cVrYWkNlbxKFjhgQKij0AAq35nt2qt5lJvNeTJuWrZ2R93RFoy45I/Wvin/gov4Z1bRR4G+KPhyV7PV/Dt4YWmiGcK+GUt6ruQAg9mNfZu+uJ+NPgm2+I3ww8Q+H7pdyXdq4X1DAZUj3yBXThqvs6ivszKrHmgzyT4K/GLTfjT4FtddswtvfoPL1CwBybecfeA/2SeQfQ13nnHr1r8uvgf8WNU+Bfjv7cgZrPzWs9Usu0iqxUn/fGOK/RK3+Lngu78D/8JhH4ksV8Pqu9p2mXeh/uFeu/2rz8yyuph6r9grwlsY0aylG0jtVZnYKvORnrXzr+0B+19pnw5jn0LwfNDrPizlJLhSGtrE+/99/boO+a8b+O37ZM/j7SJ9B8FQX2jadKxS41OYqs1xH6IAcqD6mvmeOMKuBzk5J7n3Of5162WZHtUxWy6HNWxatyxL+ra1qHiTWLrVdXvZdR1S7ffcXUzEsxP8h7DpXonwD+FH/C0vFxW5EiaVYlZLl043dwgP8AnrXnnh/RbzxJrlnpWnwtPe3kqxRooJ5J6/QdTX6G/Cf4bWfwx8IWuk24D3GN9zPtAaWQ/eJ/GvoswxMcLT9lTVm/wRz4ak6kueep11raxWVtFbwRiKCJQiRr0VQMACpKXaaOa+NPZEopaSgAooooAKKKKACiiigAooooAKKKKACiiigBcGjaadRQA3bS7aWigBNtG2looATaKMClooAKKKKACiiigAooooAKKKKACiiigAooooAKKKKACiiigArwn9rbSLnxB4X8OaXaY+032qx20e7pluMmvdq8X/aZ1f8AsGx8G6h0+z69bv8A+PCt6MnGpFx3IqaxaZ85+OPDviX9kX43QnSL9bmaCFLixup4Rsu4HGHjdB6MGBwc9DXr+n/8FClWzUah8P2a9UYZrHU8RMfoyEqPxNe4/Hf4H6H8eNHtYb65k03UrP8AeWWpQKHKhgDtZT95Sa+G/it+zr41+EczS3ti2s6Pn5NV02MyR/8AA1HKH6134epgc0ilikvaI86pGrQd47M6D4tftdeNfihZy6XaiHwpoUuVe10+VjNKvo8pwceygVwfwh+FOpfGLxnZ+G9MBgthiW+vcZW2gB+Zs/3j0A9TmsTwn4P13x5rEOleHtKutRvpGAIWJtiZ/iY44Ar9GfgV8HLP4M+CI9LBWfWbk+bqN4uMySf3c/3V6V2YzE4bK6Djh4pT6WM6UKlad6mx3Hhnw5pngvw3p+gaPbLaaZYxiOKJO+OrMe7Hua0i5OSTzUW7uTyetQalqlroum3eo30621laRNNNK54VAMmvzfWrO7d2z2tI7Gd478eaL8M/CN74k8Q3Qs9LtF7AGSV8cRoD1Y184/DX4Yaz+0h40T4ofEy1a08PI2dB8MkkKIgcq0gPY9T3P04rR8NeEtS/af8AG8PjrxZA9t4C0uQjQ9EkyBdMDxM69x3r6WVVVQqKERQAqDoB2AFezKpHA03GH8SW77eSMuXmeuxL5g2BQqoiqFWNVwqqOigdsUeZUVGa8VtydzbyJfMo31FmjJpK9w3ZMHz2r55/ah/aGn8F26eBvBZa/wDHusYt1W1wzWivx17SHt6ck9K0/wBpr9ou2+DGhnS9NkS48XX0RMUecraIeBK3ofQVj/sKfs83c11N8VfGCTXOr3xZ9P8AtX3sN96Y57t0HoK+ly/AxjH63iFotl3ZyTqOT5IHpH7I/wCyPp3wZ0iHxD4ijj1Txver5k1w43rabufLjz39W6k19Obqh3AcDgUu6uirUnVlzTOiEFTViXdRuqLdRurIsl3Ubqi3UbqAJdxpsuJEKkZVhgimbqN3vQB+RX7R3wb8S/Cj4l+IZdT0uSLQdQ1KafTdSUqYpkdy4HXIYA4ORXkfkx7i3lrnOenf1+tfeH/BTGHXH0nwhPEhbw7HO4nIXhZm6E+2K+Eu1fc4Oft6EZTWq/Q+erx5KjsxdxGfUfjQ0nYBmPQBRlic4AAHfNIGzhVDMT0VRkk+lfWf7N/7N/2D7N4r8VWwN2QHs7CQcRDs7D+9/KtMVio4aF3v2Jo0XVfkb/7MfwJXwbYp4o1lGOtXkQ8mFsgW8Z56f3jX0FRRXw9WrKtNzm9We9GKgrIKKKKyKCiiigAooooAKTaKWigBNtG2looATbRtpaKAG7aNpp1FADcGinUUAFFFFABRRRQAUUUUAFFFFABRRRQAUUUUAFFFFABRRRQAUUU2SRYY2d2CooyWPQCgCHUNQttLs5bu8mS3tolLPJIcKoHevnTxF+15Nq2vDRPh34Wu/Fuo7uPLVsEA4JAUEge5wKv6lo/iP9r7xPd6D4avW0TwBpU/k32rFfmu5B95Yx3A6Zr60+EfwQ8K/BXw7FpfhzTY7dsZnumUNNM3952POa7lCnRjerrJ9P8AMzfNJ2ifPel+PPifpekw33iz4SarZ2/WabTbiG6Ma+vlq288e1d74X8Vab4y0iLUtLuBcW8nB4wyMOqsp5BB6g19Cc18p/tIWKfBHxhonjnRIvs2k6xerY63ZKuI2Zv9XMAOj9QT34rCMVVbUVZmj91au539FMhlWeFJF5V1DD6EU+sACvnv9s+4Fr4F0GYjIj1eBiPowr6Erxf9oq30/Wr7wFol8yst5rkOYT/GoOT/ACraj/ETM6nwM+hZGA8vaNq+VHgenyiiO5eEkoxU9PrTZsec4AwAcAemKZXykm3K6djZq5JHP5KssUccIY5YRIEz7nA5pu/06U2ihylLd3DYd5g79K5zxx4Ri8eaXb6Te3DxaS06zXlvDwbhV5EZP90nGfpXQ0lTGVmpLoOwsKRW1vDBbxJb20KCOKGMYWNR0A9BTt9MpaJNyd2A7fRvptFSA7f1rz745fGWx+C/gd9XmC3GqXBNtptjnmaU9yOoVepPt6103i7xdpPgXw5d67rt4llp1qpLSMfmY9lX1Jr5S8J/DPxL+298UH8VazFcaJ8PLP8AcW+QVaaIHOxP97u3XFe3l+BVWaq1vhRhVlKKtDcxv2X/AID61+0p8QLjx14uaSfw9FdGW4uJc51CYHJjjz/yzU8Ht2r9NbWCGytore3iWGCJAkcaDAVQMAAewrL8M+G9O8I6HZ6RpFpFZafZxCKG3iACooGMY/rWpz/k17OIxDry0VktkOnT9mvMk3Ub6j5o5rkNiTfRvqPmjmgCTfRvqPmjmgCTfR5lR80c0AeS/tZeEj42+APi6wjhE90lm08IIyQ6jII/CvyUsd9/Hb+TGzyzKpWNBuLEjOBX7datZ/2lpt5auPlnheJt3QgqR/WvhP8AZn+EeheF9Q8USzRpea3p2pzWP70Z+zxq2VC56ZBB/KvbweM+r0ZXV2cFeh7WaMj9nL9m5dNa28T+J7bfdABrWymGQno7D1r6g6cCgccDgUV5VatOtNzm7s6YwUFaIUUUViWFFFFABRRRQAUUUUAFFFFABRRRQAUUUUAFFFFABRRRQAUUUUAFFFFABRRRQAUUUUAFFFFABRRRQAUUUUAFFFFABXj37R3jC+sdBsfCmhFn8ReJJ1sbVI/vAMcFh9BXsNeJfADSz8Zv2tPEHiqfM+i+EIfslpvT5RcNxkevy5OfVa6KMOaXM9lqRJ9O59U/Br4X6f8ACP4d6R4bsEULaxATSKP9bKRl2PuTXbeXUwTj+nFBXtWLk5tuRolZWIdlfOf7Ymi3HjbS/CnhK0bMt5qcdzOQOY4YsMz/AEzgf8CFfRGqahZ6LYT3t9cR2lpAhklmmYKiKByST0FeSap480rx/a2mpaLKl3p7qfKu1UjzVzjIzzjIqqcnH30gl7ysY9rD9mtooQciNAmfoMVLRRWYgr56+JNrqPjr9pzwJoNhAvl6OP7SuLiRsKidyfwNfQteRfBG4+3/ALQvxVluJPMuLaC3ghDH7kZbkCtIz9nGdTsn/kRLax73MoaZ2HALEimeXUv8qK+UNiLy6PLqWikBF5dHl1LRQBF5dHl1LRS9QIdlYnjTxlovw78M3niDxBfR2OmWyks7H5pG7Ko7sewFM+IfxC0H4W+F59f8SX0djZRgmNMgyztjhI17n36DvXz18MPhf4o/bU8aweNvHMEuj/DLT5M6XoeSousHgn1Hq3U9sCvYweBdV+0qaRRjUm46LVkfw9+Hvif9tnxnF4s8VRT6J8LtPlP9naSTt+1kHGSO/u34V94aHoNj4d0u203TLaOzsbdPLiijXaqqParel6PaaNYW9jY28Vpa26BIoIUCoigYCgDgADirQXivYqVFJKENIrYqEOVXerIdlL5dTbaNtYGhD5dHl1Nto20AQ+XR5dTbaNtAEPl0eXU22jbQBD5dHl1Nto20AQeX718mNosvg/8Aaa8Z2cZ2adq9jBqMcfYyglHI/SvrnbXzZ+09Z/8ACPfEz4Z+K1jzDJcz6LOynH+uTehPsDEfzren9qPkS+5t0UUVgIKKKKACiiigAooooAKKKKACiiigAooooAKKKKACiiigAooooAKKKKACiiigAooooAKKKKACiiigAooooAKKKKACiiigDN8SXX2Pw/qc+/yzHbSMHzjBCnmoP2BfAreGfgodUuBuvNbvpr2SRvvEFjtB+grC+NCG4+Geu2yuY5LqEW6EHBy7BcD86+lfhj4XTwf8P9B0eNVAtbONCVGATt/nXRGXLSku5NryR0Hl0eWeg6nip9h9KbJ+7jZvQZrn30RqfAv/AAUJ+KWo654o0f4W6RM8dtcBJdRjjbb5xY/JHn0xzXq/gHw1H4P8G6Po0S7Vs7ZIsZzyBz+ua+afBe34uftceKNc1KJilhdSvDE3KgoxVc/iK+ta9HF2pqFGPRfizlpPnbn3CiiivONwrgvDPgGTwj8drnxXYq0lh4gszZ38fURyL8yPj0J4rvafDM9vIskbFHXoRQ9mu4HQ+Xjj045o2V8+eIf2otQ+EnjyXQ/H2j/bNFuWMlhrmlgLL5eekkR4Yr32nOK9u8F+OPDvxG05b/wxrNrrNvjcy27/AL2P2aM/MK8Wtga1FKXLdeQlUjexreXR5dWGjKk8Yx1puDXD6mhB5dL5dWEhaQ7UUs3ooOa8v+LX7Rngn4Ph7fUb06rrQXK6RprB5c/7bdE/Hn2rejQqV5ctOLbIlKMdWekeUW4HJ7V458c/2mPD3wdhksLYx654pZfl02FxthOOGmP8I9utfO/jj9uDxx4os7qx0PTrDwpbT/Ks8Jaa8VT6OSFB9wtcT+z7+z9rv7Q3i54IWmj0iKXfqmsSEsWycsoY9XPrX1eEyP2X77GPRdDjqYhy92juegfAL4X+Jv2xPip/wlHjm5lvfDOly75Y+VgZs/LBEOgUdW9a/THTdKttHsILKzgjtbWFBHFFEm1VGMAAelctYaX4Y+AXw4ht4LddM8O6XEokaOMnYo4MjY5OTnJrrdG1Ww8QaXb6hpt1FfWNwm+KeBgyOp6EH+lXiK3tv4atBbI6KcOVXe7JfLpfLqfZ7UbPauI6CDy6aQA2CRk/wkj88VaEdfOvxI8eXei/tbfDrQIZJDBe6fdNLCjHaemCR7c1cY8xEnY+gvL/ABo8up9ntRs9qgsg8ujy6n2e1Gz2oEQeXR5dT7Pal2H0ye1MCv5Zo8uuV8K+OovE3jLxJo9uVkh0doo2defnZckH6cfnXY7PahrlC5B5deJ/tgeHhq3wR1O/UN5+jTwapCyfeBjkBb/x0tXueysTxpoMfiTwlrOlyRiVLy0lg2kZHKkD+daU3yzUmS1dWPBPD+qRa1odhfwNvhuIVkVvUEVoV5X+zlr02oeA20q8Zmv9EupdOm3DB+RiBx9BXqlRKLjJxYkFFFFSAUUUUAFFFFABRRRQAUUUUAFFFFABRRRQAUUUUAFFFFABRRRQAUUUUAFFFFABRRRQAUUUUAFFFFABRRRQAUUUUAch8RW/5FmJuY5tcs43U9CPMzg/lX16sYVQoGAvAr48+Jj+XJ4RP/Uw2I/OSvszy+hrV/AvUFuV/LPpVfUAY7G4YYBWNj+laHl+1VNYizpV5gf8sX/9BNRH4kU9j87/ANl/wvatr3jrxOXd7u41e5tlG75VRZCa+hK8F/Y/lM/gfXJWOTJq07n8WJr3qujFNutK5jTSUFYKKKK5TQKKKKAOa8efDvQ/iRo/9n63ZrcIpLRS4xJE2MblPY18t6z+yj438FatLqXhHVzKYv3kE9rMbe5yOgOOCa+yaK6qOJq0U1F6djOVOM9z5V039oT4+/DnyLXXdE/4SWHbxJqViS+PQyx9at3H/BQDxOsbwjwLo1vcrlSz3MhCsOPu4z+FfTzMqqWbAAGSTX5wfEy4iuPH3ie5hZZLeS/lZTHyDgYOPxBr0cHQw2OqNVaSVtbo463NRjeLOw8aftSfFDxxviuPEjaRZyAg2mkRiBcemRya8naMySSSMWklc5dpGyxPqWPWvoSw/Yb+KGveA9I8UaF/Y2tQalbrcpYw3ZSVVYZAyVKsfxFHhL9g/wCMniTVo7XUdDtfDNoxxJeX14kmB3KpGWJP1x9a9ynUwmHT9nZJHFKFeb1OD+APwP1L49+PIvD9nI1rp8I87UL5VyIYx/CD/ePQD3r9aPh18NdD+FvhOz0Dw/ZJaWFsoUbQAznuzHuT61hfAP4B6H8A/B8ejaSGurqQiS81CUASTyep9B6DtXpvl9OK+axuLdeVo7HqYfDqir9TD8SaLF4g8P6jps8SzRXUDxMjjKncpHP518V/sCeO38G+K/GXwl1zUtlxp2oSHTba4b5ioPKpnt3xX3gY8jGK/Pz/AIKEfBseBfEeifFjwyZtMv5LuOC9ntTt8uX/AJZTD0OcA0sLy1E6MvtbepdZyjaoj758s0eWa+ff2Qv2orT46eHf7H1mSO28babGPtUHC/akHAnjHcHoQOh9iK+jPL9q5KtKdGTjM2hNSXu7FXyz1r5i0e1g8S/t3as9zEs7aF4cRrWTvG0kmD+OBX1Ky7VJ7Yz9K+X/ANnIHxJ+018cNZOJI7O5tNMgfHUbCzAH2NVSWkmKfQ+mPL9KXyz6VYCZAyO3el2e1c/Q0K3ln0pPLNWtntR5ftQBVaMjmsfxfr1t4S8ManrN7IsNrZW7zuznAwozXQ+WO4r47/4KD/EO7m0fw78KdBcya34uukt5I4+XWDcARgf3un41vQpupUUHsiZWijuf2LGvPEPw11LxlqAJufE+qXGoI7rhvJ3bI1P0C19BeX9Kxvh54LtvAPgfQ/D1mqrBp1rHbjC7d21QC2Pcgn8a6Py/aoqNSm7bII6rUreWaTyuOlWvL9qNntUFHwP4Y02LwF+1D8TfDQdlS+MeqQR4O07gNxH45r2CvOf2rrdvAn7Unw88Sofs1nrFvJptzJjh3zkA/hmvRq6sRq1PujGG1uwUUUVyFhRRRQAUUUUAFFFFABRRRQAUUUUAFFFFABRRRQAUUUUAFFFFABRRRQAUUUUAFFFFABRRRQAUUUUAFFFFABRRRQBwvxWYqvhE+niPT/8A0aK+2vLx9a+KfipxaeG27Lr+n/rcIP619veWfStfsIF8RW2VDqEW6xuFx1jYfpV/y/amTx7oXHTKkfpWadmmWfm7+xypXwDq6kYK6nKD+de+14x+zNp66TpvjCyQ7lt9euogfYORXs9dGJ/jS9TCn8CCiiiuY0CiiigAooooAxvGWsW2g+F9TvrtxHBFA+TnHUYr86obO58RalLDpVhd6lM7EtFZwNIwyTycDGa+4fiRpf8Awsj4heBfhxiRrTWLz7RqKxjrax8sD3AJ4/Gvs7wT8NfDPw40tNP8NaHZ6PaqNu21iCs47bm6sfqTXrYXErBQ50ryl+SOapR9vJLoj5D/AOCevxaubW31j4TeJRJYavo7mawt7v5JPKY5aLB5yh7elfbewbRg8HBr82f28PAOtfCf48ab8R/D8j6emqGOaG9g48i9iHKtns684PXpX3B+zr8YrT46fC3SvE0KrDeupgvrYH/U3CcSLjPTPI9mFRjKMZpYiG0t/IqjJxfs5Ho22jZVjZ7UbPavMudRW2V578f/AIZwfFr4Q+JfDMqgyXdo/wBnYjOyUDKMP+BAV6ZtI5xTDGcYI7Yq4ycJKS6MUtYtH4V6JqGr+FtYt7+xurjRtf06Vl86BiksMyEq4/MEYr79/Z5/4KCaNrOnwaL8T5Y9D1iIbE1kIfst2MfebH+rf26Gvmf9sb4ej4d/tGeJbaGHybHV/L1i2ycj94MSf+RFc/8AAq8Z8sYIIyp7dq+1nRpY6lGct+54PtJ4aTij9Qfi7+298N/A/he6m0TXbfxNrckbC0sdObeS5HBc9AvvWT/wT00a+Pwe1LxTqyg6n4n1m61KSQd1yFCj2DBsV+ZdxDHb2k+xVjXYR8qgdvb61+zf7O/h2Dw38DfA1hbxiONdHtpNo7M8Ydj+JYmvGxuHp4Okoxd23+B30Ksq8ryO88vHHWl2VY2Y7UbD6V4B6BX2UeXVjZ7UjLjrxQBmaxqVroWlXeo3sqwWdpE080rnARFBLE/QA18KfsraTdftL/tKeKPjLq8LNoukSGz0eOQZXcMhSPcDnPqBXpH/AAUE+JGo2vhHQvhf4ZJfxT42vFs1jQncluGG9jjoCSoP+zv9K92+BPwlsPgr8M9E8KaegItIB582MGaUgb3b3Jr0YS9jRdTrP8jCS55+h3OzjGKNlWNntRs9q87yNyvso2VY2e1Gz2oA+QP+Cknh2aT4PaP4mtmCXOgavBOr4zgO2wn/AMepvg3XE8S+FdJ1SN1kW7to5dydMlQT+tezftW+EB41/Z78daYIvOmbTJpYEx/y0QblP5ivlL9lnxVB4i+E2mwIVWayBieMNkhSdyn8iK7Ze/h0/wCV/mc/w1Ld0ewUUUVxGoUUUUAFFFFABRRRQAUUUUAFFFFABRRRQAUUUUAFFFFABRRRQAUUUUAFFFFABRRRQAUUUUAFFFFABRRRQAUUUUAcT8YJRY+DG1R+U0q7ttRdcdVimRyPxCmvtjQ9Ui17RrHULdlaC6gSdCpyMMoPX8a+T9c0e38QaPe6bdoHtrqJoZFIzwwxXp37H/iCSb4Z/wDCLXknman4XmbTpRnlovvROfqv8q1WsLdg6nuGykaPcpGM5FTKd3bilcfKcdcVkWfnX8I/M8OfFT4r+E5gFNlrs9xESMM0buSrY9xXr1c98fvCP/CB/tUaN4nihf7F4ssPsUzoPlFxEPlz9Vx+NdDXTiGpT5l1MYaKwUUUVzFhRRRQAUUVl+Kdct/DXh3UdUunVILWB5WLHA4BNNK7sBB+y9oX/CaftHeN/F7xlrXQbZNGtZN2V80/NKPyK19l7eTxkdK8E/Yh8ESeGfgZp+p3cPlal4hnl1e4yclvNYlCf+AbR+FfQIXFbVmubl7aDjtc4z4pfDLQ/i14L1Hw14gtFu7C8j25I+aN/wCGRT2ZTyCK+AP2a/GOtfskftHan8M/FchXQtWuFhE75CGQ8W9yPZ1Gxv8AaA9K/TFl/CvlD9vb9nd/if4DTxbokLDxT4djMimHh57cHcyD/aU/OvuD6104SrF3oVPhlp6Mxqwv763R9UABsbeQehp2yvDP2MvjQPjR8GNLu7mUNrelj7BqEZ6+YowHI/2h/I171trjnB05OD6G0ZcyTINlG32qfbRtrIo+F/8Agpt4BFx4f8JeNoI1Emn3T6ddOFyfKlGUJ9lZD/31XwT5Z+pr9iv2mfAKfEr4H+LtDYAyyWbTwkDJEkfzrj8VA/Gvx5t98kKFgRJt+YHj5hwR+YNfY5TVcqPs30PExkP3nN3IJrY3GyHGfNkjTH1cD+tft/4J04aX4P0KyC4FtYQQgf7saj+lfiv4dtftfijQbcAkzahbrjH/AE0FfuPHEI0VVGAAABXHnEr+zRvgVo2RbaXZU22l2182eoV9tQX11FY2k1zO4jghRpHdugUDJP5VdZa+W/8AgoF8YJfh38HJdE0ydodb8RE2kTofmiiAzI/4CtaUHWmoJETmoK7OR/Zn0g/tCftCeM/jZqkby6Rpsp0Tw1HJygRMiSVfrng+jmvstY8DpXlH7Jei6Dov7Pfgm38Nvv0w2CyB2XazSMSZCfffuH4V6+Fq60rza6LQUf5u5Dso2VPto21zmhBso2VPto20AZHiC3a70PUIREJWkt5EEbdGypwDX5SfskXlxofjrUNFvBJZ3DQSRy2chPyyRvgrj1BJFfrdIpZW+lflH4HU/wDDXXjBv+ovqX4ZmJr1ML71CtHyRx1v4kGfVNFFFeWdIUUUUAFFFFABRRRQAUUUUAFFFFABRRRQAUUUUAFFFFABRRRQAUUUUAFFFFABRRRQAUUUUAFFFFABRRRQAUUUUAFc74N8WN8Kf2iNFvZ3Meg+K4v7LuTjCpcjmJyc4ySMZ966KuS+KXg8+NfBt5YxN5V7Hie0mHWOZDuVh75Fa02lLXZile2h9wxtu5/H9KkzuX0rx39lv4wD4vfC/T7u6k/4nlgPsOpRk5YTJwWP+9jP417CT0FRKDjJxZcWpao8W/az+H9544+EV/LpLGHXdHYalYyoPmDx/MVHswBBrxjwbry+J/Culaqp3farZJW+Xb8xHzDHbnNfZt1AtxbyRSLujdSpU9wa+GW0m7+Evxj13wRdqBouoM2qaJK3HyscyxD12sc/Q1qvfp8vVa/Il7nZUUUVgAUUUUAFedfG3SrvxVoek+F7I4l13U7exbj+FnG78MA16LUvw38Px+LPjpoxkw8Og2kl+8bdN7fIh+o3E/hWtJ8s1LsDPqTw7o9v4f0Ox020jEVraQpDFGvRVUAAD8q0cUicCnVlu7ssaUzUU0QaMqwyDwRU1I3PFK9gPizw74df9lP9rYRQBofAHxBJjjGT5dtfcsq46DJzg+jGvtBZN3QcV5V+0t8N/wDhY/wh1yxgVRqtvF9r0+bGGhuI/mRlPUEEVT/ZW+MB+NHwj0nVrg7dXth9j1GNhylxH8rZ+uM/jXXVbqxVT7zKPuux7JjNG2jPYU6uTc1K11bi4tpoyoZWUrg98jFfil8QvDr+E/iJ4q0WTrY6nOg9lLbh/M1+2pXNfk/+2h4bTw7+0brxjiMcV/DHdAkfeY5DH+Ve/lFTlqyj3R5+NjeKZ5z8HtN/tT4weC7UruD6rCSPoc1+0iL8or8iP2VrFdQ/aK8ERMuQLvzDn2Ffryv3RSzZ/vYryFgvguG2kp1JXhHokUmFUn27V+TP7ZvxGb4mfHTWfKlL6doq/wBnWo6DcufMP13Ej8K/Tf4xeLk8CfDLxHrshwLOykkBHXO04x+NfjJJPNfeddXEjSXFwzTyu3UuxJb9TX0GU0k5SqPoebjJ6cp+sX7Gl2t3+zb4KKgApauhA7ESuK9rC8187/sGTNL+znoisciOWZR9N2f619ErXj4hWrT9TtpawQu2jbS0Vzmom2jbS0UAQyfcb6V+UXhRjH+1p4lxxv1i9z7gsTX6uz/6uQ/7JFflF4VXP7WGunHXU7tq9PB/wq3oclb4oH1RRRRXmHQFFFFABRRRQAUUUUAFFFFABRRRQAUUUUAFFFFABRRRQAUUUUAFFFFABRRRQAUUUUAFFFFABRRRQAUUUUAFFFFABRRRQB5V4b8VTfsy/HhdeO2PwR4pkWHUFHC285/jx2yf51+gtneQ31vDcW7iWCVQ6SKchlIyCPwr4w8deDbLx94YvdGv03RTr8rdCjdmBq/+xr8cr7Q9Tl+EXji4aLWdPyNJubg/8fcIzhN3dgBx6j6V3OPt6fMvij+KM/4b8mfZJ5FeafGb4N2nxStNKuFMdvrOk3IubO6K8jjDoT6Mpr0neDxml9a4Yya2N2rnyprGj3Wh30lrdxGOVT+B9xVKtn9su88UeBdJ0/xroqLqWj2TiLVNPZPuxk8Sqw5GOh+tcV4L8ZaZ480CDVtKmEsEnDIT80Td1YdiK09nLlU+hndXsblFLtNG01mMSug/ZXYax448eaqHWRIJItPRl5wFBYj8yK4/xFqX9jaDqF8Tt+zwPID7hSRWt/wTpD3nwp8Q6nKxklvdcndmbqcY/wAa6IU705T+RDl7yifWUfQ0+mx9KdXP6mwUmKWigCG4j8yF1IyGGMetfG/wBhl+C/7XHj/wLIfK0nXh/a1gmSRknLY/Ovsx/u18rftWzQfDf4sfCv4jGPZHFfnSL2fHCxS42k/jmuqg9XB7Mzlvc+qFan1XhkWaOORDlGG4H69Knrk9TQWvzj/4KNWDR/Fzw7dYwsunNHnHXDA1+jlfBX/BS612ap4FvFXki4hLe/ysB+hr1MudsTHzOTFfwmeKfsX2P2r9pLw2QMrBHJIa/V+vzD/YFsRd/tAGUDIt9OZ/zYj+lfp4v3RWuaO9f5E4RWpi0hpaYx+avHO0+Wf+ChvjA6H8GotJimMU+rXSwFR/FH1b+Vfm9JFtibnoD9K+0/8AgpZqYk1zwLp4bgRXFwV+hUD+dfF0+BA/b5D/ACr7LK48uHT7nh4u7qWP1B/YRtzb/s56Fx9+SV/zavoVa8X/AGPbEWH7O/g5QMeZaCX8ya9pWvlK+tWT8z2KWkELRRRWBoFFFFAEFx/qZPoa/Ln4f6WNU/ad8W3YcgWd3dOVxwSWCj+Rr9RLuRYraV2+4qkn8q/Ov4GWcepeKPH3iaIK1rf6vNHbSd2RXJz+ZP5V3Yefs6VXzsjnqR5pR8j2KiiiuE1CiiigAooooAKKKKACiiigAooooAKKKKACiiigAooooAKKdtFGKAG0U6loAZRg0+igBu00bTTqKAG7aNtOooAbtpdtLRQAm2jaKWigBMCilooASloooAK86+L3wsPjqxttS0i4bTPFelv5+n30bFTuByFJ7dOD/QmvRaKuEnCXNETV1ZnX/ss/tJf8LS09/DPiqL+xviDpK+Xe2Uvy/alHHnReoPcDp9K+hQwPTmvh3xv4EXxBPb6zpUx0rxXp/wA+n6pAdsiMOQrH+JT0IPFelfs7/tc2/jrUP+EM8dQR+GvH1oNjxSfLBe4/jiJ7nrit5Q9qnUprbdf10EnyaM+i9T0q21axuLK8t47qzuEaKWGUBlZSMEEehBr8+vix+zv4z/Zf8S3niv4cxTa34JuWLXWl4Mr2o64ZRyyDoGGSBwa/RLzFOMEHNRtCsqMrqrAjBU85z1rOjWdJuLWj6DnDm1W58D/DL46eH/iNCkKzpYaqAN9nK33j/sN/F9OvtXo/Wut+L37EXgD4nXMup2VvJ4V15juF/pJEYZvV4/utz6ivn3xJ+zz+0D8JmL6BqcPjjSYhtSOPCz4/65vnJ+hFdHsqNZ/u5WfZ/wCZlzSgvfR2HxMZV+H/AIgLsEH2OTk+u04/Wu4/4J02ph/Z5DY5k1a5c/klfD3xQ+K3jy8hbRvE9pd+H15EtpPaGHzPYsRhhx0zX33+wTZ/Y/2cdFJGPOnllHvkiumpRlh8K+ZrVrYxhUVSumlsj6KWnU1W3CnV5B3hRRRQAjdK8U/a8+Ft38XPgnq2h6dCZ9UWSK6tFUgHzUcYOT7E17W1UdY1ix0LTbm/1G5jtLK3QySzSnCoo6kmqjJwkpIT21KXhGxuNJ8L6NY3TeZdW1pDBM+erqgDH8wa3KztH1iy8QaZa6jptzHeWNygkhnjOVdT3BrRpPcYV8X/APBTG1VfAfhC8EeXg1Yhm9FaJ1/mRX2hXyl/wUatEl+BsNwU3PDqUDg+nzc/pXZg3y4iDMK6vTZ4Z/wTisvO+MHiK5xxDpca/iXev0fXpX5+f8E0bPf4m8ZXhHKwwxZ/M/1r9A1+6K2zH/eJGeF/hIWmN96n0xq8s6z85/8AgpBdbvix4WjH3YtJmOPcyJXybdSbreVTx8pH4V9V/wDBR11X4v8Ah0Af8wtwfxcH+lfJ19Ji2lPtX3OBX+zQPAxDvVZ+wf7M9r9k+A3geIDGNLhz9cV6cK84/Zzl834IeDHxj/iWxDH4V6OvWvi6v8SXqz3IfCh1FFFZlhSZozTdwpXA87+Pvi5/BHwj8U6rAf8ATIbKQW693kK4VR75r5j+F3hdfB/gPRtL24kjgVpTtwTI3zMT75Jra/aG+IR+KXxdsPAWmy+ZomhOt7q0kZyryqcpFke+Ca0AMDA6VvJOEVH5mSfM3IKKWisShNoo2ilooATbRtpaKAG7aNtOooAbto2mnUUAN2mkp9FADKKfRQAyinUYFADaKdtooAfto21Z8k+lHk0AVttG2rPk0eTQBW2UbKs+TS+T7UAVdlGyrXk+1Hk0AVdlGyrXk0eTQBV2UbKteTR5NAFXZRsq35NHk0AVNlGyrfk0eTQBU2UbKt+T7UeT7UAVNvtRtq35PtR5PtQBU21wHxX+Dmm/EzTxLu/s7XrUb7PUocq6MOQCRzj+VeleT7UeT7VcJypyUovUTV9GeXfCf9sTxN8FdSh8I/F61uL3TogEt/EFvGWcL0BlA+8v+0OfUV9u+E/Gmh+ONHg1TQdTtdVsZl3JcWsodSPqDXy74m8G6V4w0x7DV7KO8t2BA3j5lz3U9Qa8E1j9nHxT4BvJ9S+HHibUdLZyS0NpctA7ck4O0hW/EV2/ucR8T5ZfgY+/T21R+nO4YzmopJFjUs7BVHVmOBX5Qal+0F8f/BsP2fUfFms2youWe4s4HwOnLmM/zrz3xL8Z/iF4vjkj1zxtrl7byjD232xoom+qJhSK66eVVKmqmrGUsZGG6Z+gn7WH7QPwx0PwjqvhvUHsvE3iG7gkt4dPt0WeSBiD87Nj93jIPODWf/wTz+K1v4t+FkvhOcRw6v4dfy3jXjzIW5SQfyr82I1jjBChRk5PufXPrXpv7N3xWk+Dvxo0HXmuGh0yeT7DqS5+VoHOMn/dbDfhXo1MtUMM4Rd3ucsMU5VU2fsYnf607NV7O7ivLWO4gkWWCRQ6OhyGUjIIPepuK+T1PZ6aDqM0nekPHSlfQAkb5Sa+FP8Agol8cZIbeH4baNchJriPz9UaNuUQ/cjOOmRz9CK+rPjV8XtG+C3gPUPEOrSqPJjPkW+fnmk/hVR3JNfjx4v8X6j428Sav4l1eQy6nqc73ExU5AyflRfRQMAewr2stwrrT9pP4UcGKq8iUVufqv8AsXas2sfs4+DZm422xgAJz9x2T/2Wvcq8W/Y+8My+FP2dfBljcRtFO1s07o3Ub5GcfoRXtNebXt7WXLtc66d+VXCvnL9vmzS5/Zt8QTuM/ZpbeQe371QT+Rr6NrxP9siwTUv2bPHcUjABdPeQZ/vL8w/UU8O7VovzFU+Bo8E/4Jj2vmaT46vCOl7DDn6RK39a+5h0r4v/AOCY0C/8Kz8W3He41cH8BCg/pX2hXRj3/tMzPDfwoi0x2wRT6jk68V550n5if8FCLi8b9oKKK6Ui3XS42tWxwRuO7H0OK+Z7hTLBIo5Y8fpX6zftOfs1aX+0J4UiiaUad4i0/c+nakBkxsRyjeqNgZH4jkV+WXjbwXrvw48UX3h3xJYNYaraNh16pIvZ427q3WvsstrxqUVTXxI8PFU3GfN0P1c/ZM8W6X4u+AXhG40y489bazS0nB+9HNGNrqR25H5EV7APvV+f3/BMvxlNDrnjLwpI7taypHqUKMfljfOyTH1Gz8q/QFa+YxVP2daSPVoz54JodSUtNY/LXIbiZG2vI/2lvjVbfBT4b3epgiXWbr/RdNtV5aWdgcED0Xlj9PevRfE/ibTvCOhXer6pcx2ljaxmWWWRsAAD+dfAseo6j+1T8Vm8d6tDNb+CtGcwaHZSfdl5yZSD3YgHp0Cj1rpoU071JbL+rGVRv4Y7mp8DfBFz4d8Oy6tq8bHxDrL/AGu9kdssWPQGvStlWxb7QABgego8n2rGcnOTkxpcqsipso2Vb8mjyagZU2UbKt+TR5NAFTZRsq35NJ5NAFXZRsq15NHk0AVdlGyrXk0eT7UAVdlGyrXk+1Hk+1AFXbRtqz5NHk0AVttG2rPk0eT7UAVdtFWvJPpRQBofZ6X7N7VpfZvalFtQBmfZvaj7NWr9m9qPs3tQMyvs9H2c1q/Zvaj7N7UCMr7OaX7P7VqfZvaj7N7UAZfke1H2f2rV+y+1L9l9qBmV9no+ze1av2X2pfs3tQBk/Zvaj7N7VrfZvaj7N7UCMn7N7UfZvatb7N7UfZvagDJ+ze1H2b2rW+y+1L9lPpQMyPs3tR9mrX+yUfZKAsZP2ej7PWv9l9qPso9KAsZH2c0fZzWv9l9qPsvtQBgXmjWuoRmO6torhCMESIDXKax8FfCGuyI93ods7oMKwQZAP1r0r7N7UfZvarjOUdYuwmkzxbVf2Y/A2qWoh/ss2wzndbt5bfmuDXKeIv2OfDFxo11HpD3Ftesh8tppnkXd75NfSn2b2o+ze1bxxVeL0mzJ0oPVo+cP2bv2wZ/gtdn4efE+SRNPsZPs9rq+CwgHQLJ32+jV98+G/E2l+LNLh1HSL+31KxmUNHcWsgdGB7givhj9pb9nmT4hWv8AbmjYGsW0ZDW7ABbgdcZ7Hjgnj88j448L+M/F3wn1iV/Dmu6p4XvopSJbe3kKx7wcEPCwKZHTlc160cLTzCPPSdp9UcrrSwztJaH7icetUda1W20PSLzUbyTyrW1iaeVz2VRkn8hX5oeCf+Cj/wAS/DsQg1/StI8UIqELcZazmLdi2Nyn/vkVwPxe/bE+JPxms5NP1C+t9C0Vx+807SVZPMHo8hJZvwwPaueOV1+fllsXLGU0tCv+0x8f7r4+eP5L4eZb6BYkxWFsxIBwceay+tVv2a/g7d/HD4pWOkpE39k2Lrc6jcY+VUByE+pryhYxJJFAJEgEjrF5jg7YwTjc2Ow68V+xP7OvwQ0H4H/Dyy0vSHF9cXCrcXmp4Aa7lYZL8dvQdgBXs4yrHAUFTitzhoReIqcz6HqGn2UOm2NvZ26CO3gRY40H8KqMAfpVuvIF/aI0G4+PifCu3gmm1ZLE3011kCKPn5UHckjJ9vfNeuBuM18hNOOslue4mnoh+RXkH7WOi3/iL9nvxpY6ZA1zdvYuREvVgOW/TNbvgz4taX448ceMvDFjFKt54ZmigunkxtdpIw4K4OcAHHOOQa7iaQLExYfKBzVRbpzVxSV43Pjz/gmJIJPhFrbA8nVJAwPUEcY/Svs1elfFX7IfxkXxB+0V8X/DLWllplo9+8+n29hCsSMsTmJmIH8RCKxPck19pK2VzW+LbdZykrN6mdK3KlHoPpD1rw6w+MWtr+1Zqnw9u4bdvD8mipqFnKqkTLKCA4Y5wVI9q9q3bVye1c0ouNjW99USsA3Ga+Lf2+P2cf8AhJ9Kuvibpl5MNS0m1CXViwzHLADyQexGazv2Z/HnizxN+2x8VbC91+7vdDt45MWEsrNBEVeIIY1yQp+Zs465NfQf7V3i6w8G/APxhd37JiWyaCKInmSR+FVR3NdtNVMLXj7N6s55ONWm2z8p/hz8UfEfwp8SW/iLwte/Zb9FCskg3Rzxk5KOPSv1L/Zj/ad0P9oTw6XjVdN8R2YCX2mO2WQ/3k/vKT3r8lbzw3qvhyG0h1WwuNPleFWUXEZQkf3hnqM5/Krvg7xprXw68TWXiLw5fNp2rWbZjkBJV17xuOjKfQ19RjMJDGQU4/FY8mjWdGXK9j9zG+6ecVgeLvGWjeBtBudZ12/h07TrdS0k0z7R9Pcn0FfJXhb9vnWvHXhW3t/D3w41LUPGDR7Jt0iJp0b7SQ/m53YOOAVHpnvUGn/CzxP8Rdat/EXxU1n+2LuGUy2uj2mY7C2/u4j7kf3myevNfJyw7pN+20/M9lVOdXiZHjHxJr37XHiArNDc6H8M7GbMdrICkupOpxucdl/2e/fjr6lpui2+k2MFnZwrBbQrtSNBgAVuQ6dHbwrFEgjjUYVVGAKf9krGdRzstkuhajYyPs3tR9m9q1/slJ9lPpWQzJ+ze1H2b2rW+ze1H2b2oEZP2b2o+ze1a32b2o+ze1AGT9m9qPs3tWt9m9qPs3tQMyfs/tSfZ/atb7L7UfZKAsZP2f2o+z+1an2X2o+ze1AjK+zmj7Oa1fs3tR9m9qAMr7PR9m9q1fs3tR9m9qBmV9m9qPs3tWr9mpn2agDM+ziitP7N7UUCNX7OKPs9X/Ko8qgoo/Z6X7P7Ve8qjyqAKP2f2pfs/tV7y6XyqBlD7OKPs9X/ACqXyaBGf9mpfs59Kv8Ale1HlUAUfI9qPs/tV/yhR5NAyh9nFL9nq/5VHlUAUPs9H2b2rQ8qjyvagRn/AGb2pfs5q/5XtR5VAFD7P7UfZ/atDyqPJoGUPs/tR9nFX/Ko8qgCh9nFH2etDyqPJoAz/s9H2etDyaPK9qAM/wCz0v2b2q/5XtR5XtQIz/svtXi3xo/ZX8P/ABS+0ahaBdH8QuFxfRqWV9vGHTIDccZ4PA5wMV7z5XtR5XtWtOrOjLng7MmUIzVpI/NLxp+yj8QvBoeX+zo9XtlWRzJp77iqr6qwUkkdAobpXlWqaLqWhzLFqNjdafK671juoWjOPUBgCRX7BGEMMEAiszUvCek6upF5p1vcBlKHfGDweor3aec1I6VIp+mhwywUfsux+QEymSNlPANfqd+yj+0Np178GdKs/Fr3Ggapo1qsM8upW7xRyxIvyyq5G0rtxzmrmi/ArwH4dvlvNN8MWFpcqpQSJEAcHqK61tDsXtTbtaQmDbs8soMbcYxj0rDG46nilFKL08yqGHnSbbkfnvrHx6svBf7ZGpfEfSbpvEGjJdeUzxN/rYCpVwmeuM5FffPhn9sH4e+LtAt9U02XVp47gYjjXTZiWbdtIB27chgQecDBp3/CE6GBgaTZgf8AXFavWui2VjGsdvaQwxr0VEAArlxGIpV1G8Hdef8AwDWnTnBv3tz5Q8O+IPir8P8A9pLxf4/0XwPeX/hzX5VFzpst1BHJIigBHXL4DADv2r6K/wCGhPFfixxpdh8OtT0OW4jYNqOp3UDRQep2xuWY88dBx1rr/J9qPK9qxqYj2lm4rQuNLl6nlWj/AATsPBvkar4X8rTPFduZJU1Z4lkeZ3JLiboXViTlcj224BHWaX8R/i1dNdWuoaV4ZstoIhvreSebzOeCYm27TjnAZsHjnrXU+V7UeV7Vk6spfFr6mnKj5+8b/Bvx3Z+Pm+Jng/xhJN464haHWFjNk1ueGiCpECvbB56e+R2DfFT4/TaHNay+GPBy6i8ZRbuK/ugoOMbtpir1Hyvajyvaq9vK1mkyfZx6HkX7OfwZf4K6rrviK9vv7a8Ua1I7Xd6ylF2lgwVUycAYHUk/TpXbfEDwlb/E3W9PvNeLXdppzrNaWDH9zHKM/vCo+83P8WcbQRg810/le1Hle1RKpOUuZvUuMVFWRy2v+BNE8UWq22q6Za38CkEJPErjjpwR2rn/APhQ/gT/AKFbS/8AwEj/APia9J8mjyalVJx2Ycqe6Oe0TwrpfhuzjtNMsLextoxhIoIwir34AHFaP2celX/Ko8qpbb1Yyh9n9qTyPatDyqPJpDM/7P7Un2etHyhSeVQIz/s3tR9m9q0PK9qPK9qAM/7PSfZxWj5NJ5VAGf8AZx6UfZ/atDyqTyaBlD7P7Un2c1oeXSeV7UAZ/wBmo+z1oeVSeVQIofZxSfZ/atDyqPKoAz/I9qPs59Kv+XSeV7UAUPs9J9nFaHlUnlUAUPs/tRV/yqKAJ9tLgUUUDCiiigB22jbRRQAbRS0UUAFKBmiigBdtG2iigA2ijFFFABRRRQAtLtoooANtG2iigBdoo2iiigAwKKKKACiiigAooooAKKKKACiiigAooooAKKKKACiiigAooooAKKKKACiiigAooooANoo2iiigA2ik20UUAG2jbRRQAlJRRQAUYFFFABtFG2iigBNtJRRQAUYoooATaKNtFFACbaSiigAo2iiigBNtFFFAH//Z;comic=0;treeMoving=0;treeFolding=0;imageBackground=none;imageBorder=none;rounded=1;fontColor=#333333;" vertex="1" parent="1">
          <mxGeometry x="165" y="120" width="140" height="140" as="geometry" />
        </mxCell>
        <mxCell id="vyJ8C7liv6m-M0lr4ZKk-2" value="" style="shape=cross;whiteSpace=wrap;html=1;rounded=1;fillColor=#B8B8B8;size=0.3142857142857143;strokeColor=#666666;fontColor=#333333;" vertex="1" parent="1">
          <mxGeometry x="140" y="280" width="70" height="70" as="geometry" />
        </mxCell>
      </root>
    </mxGraphModel>
  </diagram>
</mxfile>
